<svg width="261" height="122" viewBox="0 0 261 122" fill="none" xmlns="http://www.w3.org/2000/svg">
<g filter="url(#filter0_i)">
<path d="M34.848 89H5.28C5.024 88.616 4.896 88.104 4.896 87.464C4.896 86.76 5.12 86.12 5.568 85.544L12 84.776V31.496H6.432C5.408 31.496 4.896 31.048 4.896 30.152C4.896 29.704 5.056 28.936 5.376 27.848L5.568 27.08H32.16C35.616 27.08 38.656 27.752 41.28 29.096C43.968 30.376 46.048 32.2 47.52 34.568C49.056 36.936 49.824 39.656 49.824 42.728C49.824 45.672 48.96 48.36 47.232 50.792C45.504 53.224 43.168 55.08 40.224 56.36C44.512 57.32 47.84 59.208 50.208 62.024C52.576 64.776 53.76 68.232 53.76 72.392C53.76 75.656 52.96 78.536 51.36 81.032C49.76 83.528 47.552 85.48 44.736 86.888C41.92 88.296 38.624 89 34.848 89ZM17.376 84.584H34.848C38.944 84.584 42.176 83.496 44.544 81.32C46.912 79.144 48.096 76.2 48.096 72.488C48.096 68.52 46.816 65.288 44.256 62.792C41.696 60.296 38.432 59.048 34.464 59.048H17.376V84.584ZM17.376 54.728H32.16C35.68 54.728 38.56 53.608 40.8 51.368C43.04 49.128 44.16 46.312 44.16 42.92C44.16 39.528 43.04 36.776 40.8 34.664C38.56 32.552 35.68 31.496 32.16 31.496H17.376V54.728ZM80.8058 89H60.3578C60.1658 88.488 60.0698 88.04 60.0698 87.656C60.0698 87.144 60.2618 86.536 60.6458 85.832L68.1338 85.064V29.192H59.8778C59.6858 28.744 59.5898 28.296 59.5898 27.848C59.5898 27.272 59.7818 26.664 60.1658 26.024L70.6298 24.2C71.7178 24.776 72.6138 25.48 73.3178 26.312V84.872H79.8458C80.8698 84.872 81.3818 85.32 81.3818 86.216C81.3818 86.6 81.2538 87.272 80.9978 88.232L80.8058 89ZM110.679 85.736C114.007 85.736 116.919 84.872 119.415 83.144C121.975 81.416 123.927 78.984 125.271 75.848C126.679 72.712 127.383 69.096 127.383 65C127.383 60.904 126.679 57.288 125.271 54.152C123.927 51.016 121.975 48.584 119.415 46.856C116.919 45.128 114.007 44.264 110.679 44.264C107.351 44.264 104.407 45.128 101.847 46.856C99.351 48.584 97.399 51.016 95.991 54.152C94.647 57.288 93.975 60.904 93.975 65C93.975 69.096 94.647 72.712 95.991 75.848C97.399 78.984 99.351 81.416 101.847 83.144C104.343 84.872 107.287 85.736 110.679 85.736ZM110.679 89.96C106.199 89.96 102.295 88.936 98.967 86.888C95.703 84.776 93.143 81.864 91.287 78.152C89.431 74.376 88.503 69.992 88.503 65C88.503 60.008 89.431 55.656 91.287 51.944C93.143 48.168 95.703 45.256 98.967 43.208C102.295 41.096 106.199 40.04 110.679 40.04C115.159 40.04 119.031 41.096 122.295 43.208C125.623 45.256 128.215 48.168 130.071 51.944C131.927 55.656 132.855 60.008 132.855 65C132.855 69.992 131.927 74.376 130.071 78.152C128.215 81.864 125.623 84.776 122.295 86.888C119.031 88.936 115.159 89.96 110.679 89.96ZM154.198 79.688H165.142C170.454 79.688 174.646 80.84 177.718 83.144C180.854 85.448 182.422 88.552 182.422 92.456C182.422 97.064 180.342 100.744 176.182 103.496C172.022 106.312 166.486 107.72 159.574 107.72C152.854 107.72 147.574 106.472 143.734 103.976C139.894 101.48 137.974 98.056 137.974 93.704C137.974 89.032 140.758 85.096 146.326 81.896C144.726 80.616 143.926 78.856 143.926 76.616C143.926 73.544 145.494 70.632 148.63 67.88C145.11 64.936 143.35 60.936 143.35 55.88C143.35 51.144 144.886 47.336 147.958 44.456C151.094 41.512 155.19 40.04 160.246 40.04C164.598 40.04 168.214 41.128 171.094 43.304L181.366 42.056C182.39 41.992 182.902 42.44 182.902 43.4C182.902 43.784 182.774 44.456 182.518 45.416L182.23 46.472H174.262C175.158 47.752 175.862 49.192 176.374 50.792C176.886 52.328 177.142 54.024 177.142 55.88C177.142 60.616 175.574 64.456 172.438 67.4C169.366 70.28 165.302 71.72 160.246 71.72C156.982 71.72 154.07 71.08 151.51 69.8C149.718 71.4 148.822 73.288 148.822 75.464C148.822 78.28 150.614 79.688 154.198 79.688ZM165.142 83.912H152.182C151.286 83.912 150.422 83.816 149.59 83.624C145.366 86.376 143.254 89.64 143.254 93.416C143.254 96.488 144.726 98.92 147.67 100.712C150.614 102.568 154.582 103.496 159.574 103.496C164.886 103.496 169.142 102.472 172.342 100.424C175.542 98.44 177.142 95.784 177.142 92.456C177.142 89.768 176.086 87.688 173.974 86.216C171.862 84.68 168.918 83.912 165.142 83.912ZM172.246 55.88C172.246 52.296 171.158 49.448 168.982 47.336C166.806 45.224 163.894 44.168 160.246 44.168C156.598 44.168 153.686 45.224 151.51 47.336C149.334 49.448 148.246 52.296 148.246 55.88C148.246 59.464 149.334 62.312 151.51 64.424C153.686 66.536 156.598 67.592 160.246 67.592C163.894 67.592 166.806 66.536 168.982 64.424C171.158 62.312 172.246 59.464 172.246 55.88ZM189.7 83.912L189.508 73.448C189.956 73.256 190.436 73.16 190.948 73.16C191.588 73.16 192.196 73.352 192.772 73.736L194.788 83.624C197.924 85.032 201.54 85.736 205.636 85.736C209.604 85.736 212.74 84.904 215.044 83.24C217.348 81.576 218.5 79.336 218.5 76.52C218.5 74.216 217.604 72.264 215.812 70.664C214.084 69.064 211.332 67.72 207.556 66.632C203.268 65.416 199.876 64.168 197.38 62.888C194.884 61.544 193.092 60.04 192.004 58.376C190.98 56.648 190.468 54.6 190.468 52.232C190.468 48.456 191.908 45.48 194.788 43.304C197.732 41.128 201.732 40.04 206.788 40.04C209.092 40.04 211.46 40.264 213.892 40.712C216.388 41.16 218.244 41.736 219.46 42.44C220.164 43.272 220.772 44.232 221.284 45.32L221.476 54.824C220.964 55.016 220.484 55.112 220.036 55.112C219.396 55.112 218.788 54.92 218.212 54.536L216.196 45.704C213.444 44.68 210.404 44.168 207.076 44.168C199.46 44.168 195.652 46.856 195.652 52.232C195.652 53.704 196.004 54.984 196.708 56.072C197.476 57.096 198.788 58.056 200.644 58.952C202.5 59.848 205.06 60.808 208.324 61.832C213.7 63.432 217.604 65.416 220.036 67.784C222.532 70.088 223.78 73 223.78 76.52C223.78 80.68 222.18 83.976 218.98 86.408C215.78 88.776 211.332 89.96 205.636 89.96C202.948 89.96 200.324 89.672 197.764 89.096C195.268 88.52 193.188 87.752 191.524 86.792C190.82 85.96 190.212 85 189.7 83.912ZM244.016 85.448C244.016 86.792 243.568 87.88 242.672 88.712C241.84 89.544 240.688 89.96 239.216 89.96C237.744 89.96 236.56 89.544 235.664 88.712C234.832 87.88 234.416 86.792 234.416 85.448C234.416 84.104 234.832 83.016 235.664 82.184C236.56 81.352 237.744 80.936 239.216 80.936C240.688 80.936 241.84 81.352 242.672 82.184C243.568 83.016 244.016 84.104 244.016 85.448Z" fill="black"/>
</g>
<path d="M5.28 89L4.44795 89.5547L4.74482 90H5.28V89ZM5.568 85.544L5.44944 84.5511L5.03494 84.6005L4.77865 84.9301L5.568 85.544ZM12 84.776L12.1186 85.7689L13 85.6637V84.776H12ZM12 31.496H13V30.496H12V31.496ZM5.376 27.848L6.33537 28.1302L6.34116 28.1105L6.34614 28.0905L5.376 27.848ZM5.568 27.08V26.08H4.78722L4.59786 26.8375L5.568 27.08ZM41.28 29.096L40.8241 29.986L40.837 29.9926L40.8501 29.9989L41.28 29.096ZM47.52 34.568L46.6707 35.0959L46.6758 35.1041L46.681 35.1122L47.52 34.568ZM47.232 50.792L46.4168 50.2128V50.2128L47.232 50.792ZM40.224 56.36L39.8253 55.4429L37.0127 56.6658L40.0055 57.3358L40.224 56.36ZM50.208 62.024L49.4426 62.6676L49.45 62.6762L50.208 62.024ZM51.36 81.032L52.2019 81.5717L51.36 81.032ZM44.736 86.888L44.2888 85.9936L44.736 86.888ZM17.376 84.584H16.376V85.584H17.376V84.584ZM44.544 81.32L43.8674 80.5837H43.8674L44.544 81.32ZM44.256 62.792L43.5579 63.508L44.256 62.792ZM17.376 59.048V58.048H16.376V59.048H17.376ZM17.376 54.728H16.376V55.728H17.376V54.728ZM17.376 31.496V30.496H16.376V31.496H17.376ZM34.848 88H5.28V90H34.848V88ZM6.11205 88.4453C6.00036 88.2778 5.896 87.9804 5.896 87.464H3.896C3.896 88.2276 4.04764 88.9542 4.44795 89.5547L6.11205 88.4453ZM5.896 87.464C5.896 86.991 6.0405 86.5653 6.35735 86.1579L4.77865 84.9301C4.1995 85.6747 3.896 86.529 3.896 87.464H5.896ZM5.68656 86.5369L12.1186 85.7689L11.8814 83.7831L5.44944 84.5511L5.68656 86.5369ZM13 84.776V31.496H11V84.776H13ZM12 30.496H6.432V32.496H12V30.496ZM6.432 30.496C6.04378 30.496 5.93938 30.4082 5.9385 30.4074C5.9374 30.4065 5.93728 30.4063 5.93673 30.4055C5.93603 30.4045 5.93198 30.3984 5.92649 30.384C5.91499 30.3538 5.896 30.2831 5.896 30.152H3.896C3.896 30.7914 4.08487 31.443 4.6215 31.9126C5.13262 32.3598 5.79622 32.496 6.432 32.496V30.496ZM5.896 30.152C5.896 29.8653 6.01349 29.2245 6.33537 28.1302L4.41663 27.5658C4.09851 28.6475 3.896 29.5427 3.896 30.152H5.896ZM6.34614 28.0905L6.53814 27.3225L4.59786 26.8375L4.40586 27.6055L6.34614 28.0905ZM5.568 28.08H32.16V26.08H5.568V28.08ZM32.16 28.08C35.4847 28.08 38.3636 28.7258 40.8241 29.986L41.7359 28.206C38.9484 26.7782 35.7473 26.08 32.16 26.08V28.08ZM40.8501 29.9989C43.3775 31.2024 45.3067 32.9016 46.6707 35.0959L48.3693 34.0401C46.7893 31.4984 44.5585 29.5496 41.7099 28.1931L40.8501 29.9989ZM46.681 35.1122C48.1027 37.3038 48.824 39.8314 48.824 42.728H50.824C50.824 39.4806 50.0093 36.5681 48.359 34.0238L46.681 35.1122ZM48.824 42.728C48.824 45.4615 48.0263 47.9476 46.4168 50.2128L48.0472 51.3712C49.8937 48.7724 50.824 45.8825 50.824 42.728H48.824ZM46.4168 50.2128C44.8023 52.4851 42.6155 54.2298 39.8253 55.4429L40.6227 57.2771C43.7205 55.9302 46.2057 53.9629 48.0472 51.3712L46.4168 50.2128ZM40.0055 57.3358C44.1226 58.2576 47.2415 60.05 49.4426 62.6676L50.9734 61.3804C48.4385 58.366 44.9014 56.3824 40.4425 55.3842L40.0055 57.3358ZM49.45 62.6762C51.6393 65.2206 52.76 68.4343 52.76 72.392H54.76C54.76 68.0297 53.5127 64.3315 50.966 61.3718L49.45 62.6762ZM52.76 72.392C52.76 75.4847 52.0046 78.1735 50.5181 80.4923L52.2019 81.5717C53.9154 78.8985 54.76 75.8273 54.76 72.392H52.76ZM50.5181 80.4923C49.0214 82.8272 46.9541 84.6609 44.2888 85.9936L45.1832 87.7824C48.1499 86.2991 50.4986 84.2288 52.2019 81.5717L50.5181 80.4923ZM44.2888 85.9936C41.6367 87.3196 38.4994 88 34.848 88V90C38.7486 90 42.2033 89.2724 45.1832 87.7824L44.2888 85.9936ZM17.376 85.584H34.848V83.584H17.376V85.584ZM34.848 85.584C39.1235 85.584 42.6217 84.4445 45.2206 82.0563L43.8674 80.5837C41.7303 82.5475 38.7645 83.584 34.848 83.584V85.584ZM45.2206 82.0563C47.8272 79.6611 49.096 76.4325 49.096 72.488H47.096C47.096 75.9675 45.9968 78.6269 43.8674 80.5837L45.2206 82.0563ZM49.096 72.488C49.096 68.283 47.7293 64.7818 44.9541 62.076L43.5579 63.508C45.9027 65.7942 47.096 68.757 47.096 72.488H49.096ZM44.9541 62.076C42.1861 59.3772 38.6616 58.048 34.464 58.048V60.048C38.2024 60.048 41.2059 61.2148 43.5579 63.508L44.9541 62.076ZM34.464 58.048H17.376V60.048H34.464V58.048ZM16.376 59.048V84.584H18.376V59.048H16.376ZM17.376 55.728H32.16V53.728H17.376V55.728ZM32.16 55.728C35.9129 55.728 39.0579 54.5243 41.5071 52.0751L40.0929 50.6609C38.0621 52.6917 35.4471 53.728 32.16 53.728V55.728ZM41.5071 52.0751C43.9488 49.6334 45.16 46.5564 45.16 42.92H43.16C43.16 46.0676 42.1312 48.6226 40.0929 50.6609L41.5071 52.0751ZM45.16 42.92C45.16 39.2836 43.9479 36.2577 41.486 33.9364L40.114 35.3916C42.1321 37.2943 43.16 39.7723 43.16 42.92H45.16ZM41.486 33.9364C39.0337 31.6242 35.8957 30.496 32.16 30.496V32.496C35.4643 32.496 38.0863 33.4798 40.114 35.3916L41.486 33.9364ZM32.16 30.496H17.376V32.496H32.16V30.496ZM16.376 31.496V54.728H18.376V31.496H16.376ZM80.8057 89V90H81.5865L81.7759 89.2425L80.8057 89ZM60.3577 89L59.4214 89.3511L59.6647 90H60.3577V89ZM60.6458 85.832L60.5437 84.8372L60.02 84.8909L59.7679 85.3531L60.6458 85.832ZM68.1338 85.064L68.2358 86.0588L69.1338 85.9667V85.064H68.1338ZM68.1338 29.192H69.1338V28.192H68.1338V29.192ZM59.8778 29.192L58.9586 29.5859L59.2184 30.192H59.8778V29.192ZM60.1657 26.024L59.994 25.0389L59.5435 25.1174L59.3083 25.5095L60.1657 26.024ZM70.6298 24.2L71.0976 23.3162L70.7952 23.1561L70.458 23.2149L70.6298 24.2ZM73.3177 26.312H74.3177V25.9457L74.0811 25.666L73.3177 26.312ZM73.3177 84.872H72.3177V85.872H73.3177V84.872ZM80.9977 88.232L80.0315 87.9743L80.0295 87.9819L80.0276 87.9895L80.9977 88.232ZM80.8057 88H60.3577V90H80.8057V88ZM61.2941 88.6489C61.1278 88.2054 61.0698 87.8809 61.0698 87.656H59.0698C59.0698 88.1991 59.2037 88.7706 59.4214 89.3511L61.2941 88.6489ZM61.0698 87.656C61.0698 87.3801 61.1787 86.9433 61.5236 86.3109L59.7679 85.3531C59.3448 86.1287 59.0698 86.9079 59.0698 87.656H61.0698ZM60.7478 86.8268L68.2358 86.0588L68.0317 84.0692L60.5437 84.8372L60.7478 86.8268ZM69.1338 85.064V29.192H67.1338V85.064H69.1338ZM68.1338 28.192H59.8778V30.192H68.1338V28.192ZM60.7969 28.7981C60.6535 28.4635 60.5897 28.149 60.5897 27.848H58.5897C58.5897 28.4429 58.718 29.0245 58.9586 29.5859L60.7969 28.7981ZM60.5897 27.848C60.5897 27.4994 60.7055 27.0681 61.0232 26.5385L59.3083 25.5095C58.858 26.2599 58.5897 27.0446 58.5897 27.848H60.5897ZM60.3375 27.0091L70.8015 25.1851L70.458 23.2149L59.994 25.0389L60.3375 27.0091ZM70.1619 25.0838C71.1516 25.6078 71.9428 26.2352 72.5544 26.9579L74.0811 25.666C73.2847 24.7248 72.2839 23.9442 71.0976 23.3162L70.1619 25.0838ZM72.3177 26.312V84.872H74.3177V26.312H72.3177ZM73.3177 85.872H79.8457V83.872H73.3177V85.872ZM79.8457 85.872C80.234 85.872 80.3384 85.9598 80.3392 85.9606C80.3403 85.9615 80.3405 85.9617 80.341 85.9625C80.3417 85.9635 80.3458 85.9696 80.3513 85.984C80.3628 86.0142 80.3818 86.0848 80.3818 86.216H82.3818C82.3818 85.5766 82.1929 84.925 81.6563 84.4554C81.1451 84.0082 80.4815 83.872 79.8457 83.872V85.872ZM80.3818 86.216C80.3818 86.4524 80.2896 87.0065 80.0315 87.9743L81.964 88.4897C82.2179 87.5375 82.3818 86.7476 82.3818 86.216H80.3818ZM80.0276 87.9895L79.8356 88.7575L81.7759 89.2425L81.9679 88.4745L80.0276 87.9895ZM119.415 83.144L118.855 82.3151L118.846 82.3218L119.415 83.144ZM125.271 75.848L124.359 75.4384L124.355 75.4462L124.352 75.4541L125.271 75.848ZM125.271 54.152L124.352 54.5459L124.355 54.5538L124.359 54.5616L125.271 54.152ZM119.415 46.856L118.846 47.6782L118.856 47.6848L119.415 46.856ZM101.847 46.856L101.287 46.0271L101.278 46.0338L101.847 46.856ZM95.991 54.152L95.0787 53.7424L95.0752 53.7502L95.0719 53.7581L95.991 54.152ZM95.991 75.848L95.0719 76.2419L95.0752 76.2498L95.0787 76.2576L95.991 75.848ZM98.967 86.888L98.4238 87.7276L98.4333 87.7337L98.4429 87.7397L98.967 86.888ZM91.287 78.152L90.3895 78.5931L90.3926 78.5992L91.287 78.152ZM91.287 51.944L92.1814 52.3912L92.1844 52.3851L91.287 51.944ZM98.967 43.208L99.4985 44.0551L99.5028 44.0523L98.967 43.208ZM122.295 43.208L121.752 44.0476L121.761 44.0537L121.771 44.0597L122.295 43.208ZM130.071 51.944L129.174 52.3851L129.177 52.3912L130.071 51.944ZM130.071 78.152L130.965 78.5992L130.968 78.5931L130.071 78.152ZM122.295 86.888L122.826 87.7351L122.831 87.7323L122.295 86.888ZM110.679 86.736C114.19 86.736 117.305 85.8211 119.984 83.9662L118.846 82.3218C116.533 83.9229 113.824 84.736 110.679 84.736V86.736ZM119.974 83.9728C122.71 82.1263 124.779 79.5353 126.19 76.2419L124.352 75.4541C123.075 78.4327 121.24 80.7057 118.856 82.3151L119.974 83.9728ZM126.183 76.2576C127.659 72.9705 128.383 69.2106 128.383 65H126.383C126.383 68.9814 125.699 72.4535 124.359 75.4384L126.183 76.2576ZM128.383 65C128.383 60.7894 127.659 57.0295 126.183 53.7424L124.359 54.5616C125.699 57.5465 126.383 61.0186 126.383 65H128.383ZM126.19 53.7581C124.779 50.4647 122.71 47.8737 119.974 46.0271L118.856 47.6848C121.24 49.2943 123.075 51.5673 124.352 54.5459L126.19 53.7581ZM119.984 46.0338C117.305 44.1789 114.19 43.264 110.679 43.264V45.264C113.824 45.264 116.533 46.0771 118.846 47.6782L119.984 46.0338ZM110.679 43.264C107.168 43.264 104.026 44.1789 101.288 46.0271L102.406 47.6848C104.788 46.0771 107.534 45.264 110.679 45.264V43.264ZM101.278 46.0338C98.6129 47.8787 96.5513 50.4627 95.0787 53.7424L96.9033 54.5616C98.2467 51.5693 100.089 49.2893 102.416 47.6782L101.278 46.0338ZM95.0719 53.7581C93.6649 57.0409 92.975 60.7952 92.975 65H94.975C94.975 61.0128 95.6291 57.5351 96.9101 54.5459L95.0719 53.7581ZM92.975 65C92.975 69.2048 93.6649 72.9591 95.0719 76.2419L96.9101 75.4541C95.6291 72.4649 94.975 68.9872 94.975 65H92.975ZM95.0787 76.2576C96.5513 79.5373 98.6129 82.1213 101.278 83.9662L102.416 82.3218C100.089 80.7107 98.2467 78.4307 96.9033 75.4384L95.0787 76.2576ZM101.278 83.9662C103.96 85.8233 107.108 86.736 110.679 86.736V84.736C107.466 84.736 104.726 83.9206 102.416 82.3218L101.278 83.9662ZM110.679 88.96C106.356 88.96 102.639 87.9738 99.4911 86.0363L98.4429 87.7397C101.951 89.8982 106.042 90.96 110.679 90.96V88.96ZM99.5103 86.0484C96.4064 84.0401 93.9631 81.2682 92.1814 77.7048L90.3926 78.5992C92.3229 82.4598 94.9996 85.5119 98.4238 87.7276L99.5103 86.0484ZM92.1844 77.7109C90.4074 74.0955 89.503 69.8673 89.503 65H87.503C87.503 70.1167 88.4546 74.6565 90.3895 78.5931L92.1844 77.7109ZM89.503 65C89.503 60.1321 90.4076 55.939 92.1814 52.3912L90.3926 51.4968C88.4544 55.373 87.503 59.8839 87.503 65H89.503ZM92.1844 52.3851C93.9663 48.7599 96.4061 45.9954 99.4985 44.0551L98.4355 42.3609C94.9999 44.5166 92.3197 47.5761 90.3895 51.5029L92.1844 52.3851ZM99.5028 44.0523C102.65 42.0554 106.362 41.04 110.679 41.04V39.04C106.036 39.04 101.94 40.1366 98.4312 42.3637L99.5028 44.0523ZM110.679 41.04C114.996 41.04 118.673 42.0555 121.752 44.0476L122.838 42.3684C119.389 40.1365 115.322 39.04 110.679 39.04V41.04ZM121.771 44.0597C124.926 46.0012 127.394 48.7649 129.174 52.3851L130.968 51.5029C129.036 47.5711 126.32 44.5108 122.819 42.3563L121.771 44.0597ZM129.177 52.3912C130.95 55.939 131.855 60.1321 131.855 65H133.855C133.855 59.8839 132.904 55.373 130.965 51.4968L129.177 52.3912ZM131.855 65C131.855 69.8673 130.951 74.0955 129.174 77.7109L130.968 78.5931C132.903 74.6565 133.855 70.1167 133.855 65H131.855ZM129.177 77.7048C127.397 81.2633 124.926 84.0342 121.759 86.0437L122.831 87.7323C126.32 85.5178 129.033 82.4647 130.965 78.5992L129.177 77.7048ZM121.764 86.0409C118.683 87.9737 115.002 88.96 110.679 88.96V90.96C115.316 90.96 119.379 89.8983 122.826 87.7351L121.764 86.0409ZM177.718 83.144L177.118 83.944L177.126 83.9499L177.718 83.144ZM176.182 103.496L175.63 102.662L175.621 102.668L176.182 103.496ZM143.734 103.976L144.279 103.138L143.734 103.976ZM146.326 81.896L146.824 82.763L148.096 82.0318L146.95 81.1151L146.326 81.896ZM148.63 67.88L149.289 68.6316L150.167 67.8617L149.271 67.1129L148.63 67.88ZM147.958 44.456L148.642 45.1855L148.642 45.1851L147.958 44.456ZM171.094 43.304L170.491 44.1019L170.813 44.3454L171.214 44.2967L171.094 43.304ZM181.366 42.056L181.303 41.0579L181.274 41.0598L181.245 41.0633L181.366 42.056ZM182.518 45.416L183.483 45.6791L183.484 45.6737L182.518 45.416ZM182.23 46.472V47.472H182.994L183.195 46.7351L182.23 46.472ZM174.262 46.472V45.472H172.341L173.443 47.0455L174.262 46.472ZM176.374 50.792L175.421 51.0968L175.425 51.1082L176.374 50.792ZM172.438 67.4L173.122 68.1295L173.122 68.1291L172.438 67.4ZM151.51 69.8L151.957 68.9056L151.35 68.6021L150.844 69.0541L151.51 69.8ZM149.59 83.624L149.815 82.6496L149.4 82.554L149.044 82.7861L149.59 83.624ZM147.67 100.712L148.203 99.8661L148.196 99.8619L148.19 99.8578L147.67 100.712ZM172.342 100.424L171.815 99.5741L171.809 99.5779L171.803 99.5817L172.342 100.424ZM173.974 86.216L173.386 87.0247L173.394 87.0306L173.402 87.0364L173.974 86.216ZM151.51 47.336L150.813 46.6184V46.6184L151.51 47.336ZM151.51 64.424L152.206 63.7064L151.51 64.424ZM168.982 64.424L168.285 63.7064L168.982 64.424ZM154.198 80.688H165.142V78.688H154.198V80.688ZM165.142 80.688C170.319 80.688 174.274 81.8113 177.118 83.944L178.318 82.344C175.017 79.8687 170.589 78.688 165.142 78.688V80.688ZM177.126 83.9499C180.004 86.0647 181.422 88.869 181.422 92.456H183.422C183.422 88.235 181.703 84.8313 178.31 82.3381L177.126 83.9499ZM181.422 92.456C181.422 96.6968 179.537 100.077 175.63 102.662L176.733 104.33C181.146 101.411 183.422 97.4312 183.422 92.456H181.422ZM175.621 102.668C171.678 105.337 166.359 106.72 159.574 106.72V108.72C166.613 108.72 172.365 107.287 176.742 104.324L175.621 102.668ZM159.574 106.72C152.962 106.72 147.897 105.49 144.279 103.138L143.189 104.814C147.25 107.454 152.746 108.72 159.574 108.72V106.72ZM144.279 103.138C140.705 100.814 138.974 97.6968 138.974 93.704H136.974C136.974 98.4152 139.083 102.146 143.189 104.814L144.279 103.138ZM138.974 93.704C138.974 89.519 141.435 85.8599 146.824 82.763L145.827 81.029C140.08 84.3321 136.974 88.545 136.974 93.704H138.974ZM146.95 81.1151C145.612 80.0442 144.926 78.5846 144.926 76.616H142.926C142.926 79.1274 143.84 81.1878 145.701 82.6769L146.95 81.1151ZM144.926 76.616C144.926 73.9247 146.288 71.265 149.289 68.6316L147.97 67.1284C144.699 69.999 142.926 73.1633 142.926 76.616H144.926ZM149.271 67.1129C146.003 64.3798 144.35 60.674 144.35 55.88H142.35C142.35 61.198 144.216 65.4922 147.988 68.6471L149.271 67.1129ZM144.35 55.88C144.35 51.3824 145.798 47.852 148.642 45.1855L147.274 43.7265C143.974 46.82 142.35 50.9056 142.35 55.88H144.35ZM148.642 45.1851C151.561 42.4452 155.396 41.04 160.246 41.04V39.04C154.983 39.04 150.627 40.5788 147.273 43.7269L148.642 45.1851ZM160.246 41.04C164.426 41.04 167.818 42.0823 170.491 44.1019L171.697 42.5061C168.61 40.1737 164.769 39.04 160.246 39.04V41.04ZM171.214 44.2967L181.486 43.0487L181.245 41.0633L170.973 42.3113L171.214 44.2967ZM181.428 43.0541C181.809 43.0303 181.883 43.1172 181.859 43.0966C181.82 43.0626 181.902 43.0858 181.902 43.4H183.902C183.902 42.7542 183.727 42.0733 183.176 41.5914C182.641 41.1228 181.947 41.0177 181.303 41.0579L181.428 43.0541ZM181.902 43.4C181.902 43.6364 181.81 44.1905 181.552 45.1583L183.484 45.6737C183.738 44.7215 183.902 43.9316 183.902 43.4H181.902ZM181.553 45.1529L181.265 46.2089L183.195 46.7351L183.483 45.6791L181.553 45.1529ZM182.23 45.472H174.262V47.472H182.23V45.472ZM173.443 47.0455C174.277 48.2371 174.938 49.5853 175.421 51.0968L177.326 50.4872C176.786 48.7987 176.039 47.2669 175.081 45.8985L173.443 47.0455ZM175.425 51.1082C175.899 52.5286 176.142 54.116 176.142 55.88H178.142C178.142 53.932 177.873 52.1274 177.322 50.4758L175.425 51.1082ZM176.142 55.88C176.142 60.3708 174.666 63.9361 171.753 66.6709L173.122 68.1291C176.481 64.9759 178.142 60.8612 178.142 55.88H176.142ZM171.754 66.6705C168.903 69.343 165.102 70.72 160.246 70.72V72.72C165.502 72.72 169.828 71.217 173.122 68.1295L171.754 66.6705ZM160.246 70.72C157.115 70.72 154.36 70.107 151.957 68.9056L151.063 70.6944C153.78 72.053 156.848 72.72 160.246 72.72V70.72ZM150.844 69.0541C148.864 70.8217 147.822 72.9716 147.822 75.464H149.822C149.822 73.6044 150.572 71.9783 152.176 70.5459L150.844 69.0541ZM147.822 75.464C147.822 77.099 148.354 78.4803 149.548 79.4183C150.696 80.3202 152.302 80.688 154.198 80.688V78.688C152.509 78.688 151.428 78.3518 150.784 77.8457C150.185 77.3757 149.822 76.645 149.822 75.464H147.822ZM165.142 82.912H152.182V84.912H165.142V82.912ZM152.182 82.912C151.358 82.912 150.569 82.8238 149.815 82.6496L149.365 84.5984C150.274 84.8082 151.214 84.912 152.182 84.912V82.912ZM149.044 82.7861C144.642 85.6539 142.254 89.1927 142.254 93.416H144.254C144.254 90.0873 146.089 87.0981 150.136 84.4619L149.044 82.7861ZM142.254 93.416C142.254 96.8849 143.951 99.6191 147.15 101.566L148.19 99.8578C145.5 98.2209 144.254 96.0911 144.254 93.416H142.254ZM147.136 101.558C150.295 103.549 154.471 104.496 159.574 104.496V102.496C154.693 102.496 150.932 101.587 148.203 99.8661L147.136 101.558ZM159.574 104.496C165.004 104.496 169.468 103.451 172.881 101.266L171.803 99.5817C168.816 101.493 164.768 102.496 159.574 102.496V104.496ZM172.869 101.274C176.317 99.136 178.142 96.1808 178.142 92.456H176.142C176.142 95.3872 174.767 97.744 171.815 99.5741L172.869 101.274ZM178.142 92.456C178.142 89.4581 176.94 87.0642 174.546 85.3956L173.402 87.0364C175.232 88.3118 176.142 90.0779 176.142 92.456H178.142ZM174.562 85.4073C172.218 83.7026 169.039 82.912 165.142 82.912V84.912C168.797 84.912 171.505 85.6574 173.386 87.0247L174.562 85.4073ZM173.246 55.88C173.246 52.0788 172.083 48.9528 169.678 46.6184L168.285 48.0536C170.232 49.9432 171.246 52.5132 171.246 55.88H173.246ZM169.678 46.6184C167.279 44.2896 164.098 43.168 160.246 43.168V45.168C163.69 45.168 166.333 46.1584 168.285 48.0536L169.678 46.6184ZM160.246 43.168C156.394 43.168 153.213 44.2896 150.813 46.6184L152.206 48.0536C154.159 46.1584 156.802 45.168 160.246 45.168V43.168ZM150.813 46.6184C148.408 48.9528 147.246 52.0788 147.246 55.88H149.246C149.246 52.5132 150.259 49.9432 152.206 48.0536L150.813 46.6184ZM147.246 55.88C147.246 59.6812 148.408 62.8072 150.813 65.1416L152.206 63.7064C150.259 61.8168 149.246 59.2467 149.246 55.88H147.246ZM150.813 65.1416C153.213 67.4704 156.394 68.592 160.246 68.592V66.592C156.802 66.592 154.159 65.6016 152.206 63.7064L150.813 65.1416ZM160.246 68.592C164.098 68.592 167.279 67.4704 169.678 65.1416L168.285 63.7064C166.333 65.6016 163.69 66.592 160.246 66.592V68.592ZM169.678 65.1416C172.083 62.8072 173.246 59.6812 173.246 55.88H171.246C171.246 59.2467 170.232 61.8168 168.285 63.7064L169.678 65.1416ZM189.7 83.912L188.7 83.9303L188.704 84.1442L188.795 84.3378L189.7 83.912ZM189.508 73.448L189.114 72.5289L188.496 72.7938L188.508 73.4663L189.508 73.448ZM192.772 73.736L193.752 73.5362L193.669 73.1325L193.326 72.9039L192.772 73.736ZM194.788 83.624L193.808 83.8238L193.91 84.3262L194.378 84.5363L194.788 83.624ZM215.812 70.664L215.132 71.3978L215.139 71.4039L215.146 71.4099L215.812 70.664ZM207.556 66.632L207.833 65.6711L207.829 65.6699L207.556 66.632ZM197.38 62.888L196.906 63.7685L196.914 63.7732L196.923 63.7778L197.38 62.888ZM192.004 58.376L191.143 58.8858L191.155 58.9048L191.167 58.9232L192.004 58.376ZM194.788 43.304L194.193 42.4998L194.185 42.5061L194.788 43.304ZM213.892 40.712L213.711 41.6955L213.715 41.6963L213.892 40.712ZM219.46 42.44L220.223 41.7941L220.111 41.6615L219.961 41.5746L219.46 42.44ZM221.284 45.32L222.284 45.2998L222.279 45.0869L222.189 44.8942L221.284 45.32ZM221.476 54.824L221.827 55.7603L222.49 55.5117L222.476 54.8038L221.476 54.824ZM218.212 54.536L217.237 54.7585L217.326 55.147L217.657 55.368L218.212 54.536ZM216.196 45.704L217.171 45.4815L217.051 44.9551L216.544 44.7668L216.196 45.704ZM196.708 56.072L195.868 56.6152L195.887 56.6443L195.908 56.672L196.708 56.072ZM208.324 61.832L208.024 62.7861L208.031 62.7883L208.038 62.7905L208.324 61.832ZM220.036 67.784L219.338 68.5005L219.348 68.5098L219.357 68.5188L220.036 67.784ZM218.98 86.408L219.575 87.2119L219.585 87.2042L218.98 86.408ZM197.764 89.096L197.539 90.0704L197.544 90.0716L197.764 89.096ZM191.524 86.792L190.76 87.4379L190.873 87.5711L191.024 87.6582L191.524 86.792ZM190.7 83.8937L190.508 73.4297L188.508 73.4663L188.7 83.9303L190.7 83.8937ZM189.902 74.3671C190.219 74.2312 190.564 74.16 190.948 74.16V72.16C190.307 72.16 189.693 72.2808 189.114 72.5289L189.902 74.3671ZM190.948 74.16C191.374 74.16 191.791 74.2842 192.217 74.568L193.326 72.9039C192.6 72.4198 191.801 72.16 190.948 72.16V74.16ZM191.792 73.9358L193.808 83.8238L195.768 83.4242L193.752 73.5362L191.792 73.9358ZM194.378 84.5363C197.665 86.0121 201.425 86.736 205.636 86.736V84.736C201.654 84.736 198.182 84.0519 195.197 82.7117L194.378 84.5363ZM205.636 86.736C209.733 86.736 213.099 85.8779 215.629 84.0507L214.458 82.4293C212.38 83.9301 209.475 84.736 205.636 84.736V86.736ZM215.629 84.0507C218.191 82.2007 219.5 79.6606 219.5 76.52H217.5C217.5 79.0114 216.505 80.9513 214.458 82.4293L215.629 84.0507ZM219.5 76.52C219.5 73.9176 218.472 71.6986 216.478 69.9181L215.146 71.4099C216.736 72.8294 217.5 74.5144 217.5 76.52H219.5ZM216.491 69.9302C214.596 68.1757 211.671 66.777 207.833 65.6711L207.279 67.5929C210.993 68.663 213.571 69.9523 215.132 71.3978L216.491 69.9302ZM207.829 65.6699C203.572 64.4627 200.25 63.2359 197.836 61.9982L196.923 63.7778C199.502 65.1001 202.964 66.3693 207.283 67.5941L207.829 65.6699ZM197.854 62.0075C195.446 60.711 193.807 59.3063 192.841 57.8288L191.167 58.9232C192.377 60.7737 194.322 62.377 196.906 63.7685L197.854 62.0075ZM192.864 57.8662C191.947 56.3182 191.468 54.453 191.468 52.232H189.468C189.468 54.747 190.013 56.9778 191.143 58.8858L192.864 57.8662ZM191.468 52.232C191.468 48.7526 192.774 46.0789 195.391 44.1019L194.185 42.5061C191.042 44.8811 189.468 48.1594 189.468 52.232H191.468ZM195.382 44.1082C198.099 42.0998 201.866 41.04 206.788 41.04V39.04C201.598 39.04 197.364 40.1562 194.193 42.4998L195.382 44.1082ZM206.788 41.04C209.027 41.04 211.334 41.2577 213.711 41.6954L214.073 39.7285C211.585 39.2703 209.157 39.04 206.788 39.04V41.04ZM213.715 41.6963C216.173 42.1375 217.894 42.6888 218.959 43.3054L219.961 41.5746C218.594 40.7832 216.602 40.1825 214.068 39.7277L213.715 41.6963ZM218.696 43.0859C219.338 43.8446 219.9 44.729 220.379 45.7458L222.189 44.8942C221.643 43.735 220.989 42.6994 220.223 41.7941L218.696 43.0859ZM220.284 45.3402L220.476 54.8442L222.476 54.8038L222.284 45.2998L220.284 45.3402ZM221.125 53.8877C220.701 54.0466 220.341 54.112 220.036 54.112V56.112C220.627 56.112 221.227 55.9854 221.827 55.7603L221.125 53.8877ZM220.036 54.112C219.609 54.112 219.192 53.9878 218.766 53.7039L217.657 55.368C218.383 55.8522 219.182 56.112 220.036 56.112V54.112ZM219.187 54.3135L217.171 45.4815L215.221 45.9265L217.237 54.7585L219.187 54.3135ZM216.544 44.7668C213.667 43.6961 210.507 43.168 207.076 43.168V45.168C210.3 45.168 213.22 45.6639 215.847 46.6412L216.544 44.7668ZM207.076 43.168C203.181 43.168 200.08 43.8499 197.931 45.367C195.718 46.9292 194.652 49.2764 194.652 52.232H196.652C196.652 49.8116 197.49 48.1268 199.084 47.001C200.743 45.8301 203.355 45.168 207.076 45.168V43.168ZM194.652 52.232C194.652 53.8698 195.046 55.3442 195.868 56.6152L197.547 55.5287C196.962 54.6238 196.652 53.5382 196.652 52.232H194.652ZM195.908 56.672C196.813 57.879 198.287 58.9249 200.209 59.8526L201.079 58.0514C199.288 57.1871 198.138 56.313 197.508 55.472L195.908 56.672ZM200.209 59.8526C202.128 60.7789 204.74 61.7557 208.024 62.7861L208.623 60.8778C205.38 59.8603 202.872 58.9171 201.079 58.0514L200.209 59.8526ZM208.038 62.7905C213.349 64.3709 217.074 66.2961 219.338 68.5005L220.733 67.0675C218.133 64.5359 214.051 62.4931 208.609 60.8735L208.038 62.7905ZM219.357 68.5188C221.64 70.6259 222.78 73.2676 222.78 76.52H224.78C224.78 72.7324 223.423 69.5501 220.714 67.0492L219.357 68.5188ZM222.78 76.52C222.78 80.3803 221.316 83.3766 218.375 85.6118L219.585 87.2042C223.044 84.5754 224.78 80.9797 224.78 76.52H222.78ZM218.385 85.6042C215.417 87.8003 211.207 88.96 205.636 88.96V90.96C211.457 90.96 216.142 89.7517 219.575 87.2118L218.385 85.6042ZM205.636 88.96C203.02 88.96 200.469 88.6798 197.983 88.1204L197.544 90.0716C200.178 90.6642 202.876 90.96 205.636 90.96V88.96ZM197.989 88.1216C195.559 87.5609 193.579 86.823 192.023 85.9258L191.024 87.6582C192.797 88.681 194.976 89.4791 197.539 90.0704L197.989 88.1216ZM192.287 86.1461C191.645 85.3874 191.083 84.503 190.605 83.4862L188.795 84.3378C189.34 85.497 189.994 86.5326 190.76 87.4379L192.287 86.1461ZM242.672 88.712L241.992 87.9792L241.978 87.9918L241.965 88.0049L242.672 88.712ZM235.664 88.712L234.957 89.4191L234.97 89.4322L234.984 89.4448L235.664 88.712ZM235.664 82.184L234.984 81.4512L234.97 81.4638L234.957 81.4769L235.664 82.184ZM242.672 82.184L241.965 82.8911L241.978 82.9042L241.992 82.9168L242.672 82.184ZM243.016 85.448C243.016 86.5446 242.663 87.3563 241.992 87.9792L243.353 89.4448C244.474 88.4037 245.016 87.0394 245.016 85.448H243.016ZM241.965 88.0049C241.365 88.6049 240.493 88.96 239.216 88.96V90.96C240.883 90.96 242.315 90.4831 243.379 89.4191L241.965 88.0049ZM239.216 88.96C237.942 88.96 237.019 88.6057 236.345 87.9792L234.984 89.4448C236.101 90.4823 237.546 90.96 239.216 90.96V88.96ZM236.371 88.0049C235.754 87.3876 235.416 86.5678 235.416 85.448H233.416C233.416 87.0162 233.91 88.3724 234.957 89.4191L236.371 88.0049ZM235.416 85.448C235.416 84.3282 235.754 83.5084 236.371 82.8911L234.957 81.4769C233.91 82.5236 233.416 83.8798 233.416 85.448H235.416ZM236.345 82.9168C237.019 82.2903 237.942 81.936 239.216 81.936V79.936C237.546 79.936 236.101 80.4137 234.984 81.4512L236.345 82.9168ZM239.216 81.936C240.493 81.936 241.365 82.2911 241.965 82.8911L243.379 81.4769C242.315 80.4129 240.883 79.936 239.216 79.936V81.936ZM241.992 82.9168C242.663 83.5397 243.016 84.3514 243.016 85.448H245.016C245.016 83.8566 244.474 82.4923 243.353 81.4512L241.992 82.9168Z" fill="black"/>
<path d="M81.6338 33.5781C81.7275 33.3438 81.8154 33.0859 81.8975 32.8047C81.9912 32.5117 82.0732 32.2188 82.1436 31.9258C82.2256 31.6211 82.29 31.3281 82.3369 31.0469C82.3838 30.7539 82.4072 30.4785 82.4072 30.2207V30.0625C82.2197 30.0391 82.0322 30.0039 81.8447 29.957C81.6689 29.9102 81.5166 29.8457 81.3877 29.7637C81.2588 29.6699 81.1475 29.5527 81.0537 29.4121C80.9717 29.2598 80.9307 29.0781 80.9307 28.8672C80.9307 28.6328 80.9658 28.4453 81.0361 28.3047C81.1064 28.1523 81.2822 28.0762 81.5635 28.0762C81.7627 28.0762 81.9502 28.123 82.126 28.2168C82.3135 28.2988 82.4893 28.3984 82.6533 28.5156L82.7412 28.3574L83.6904 24.7539C83.667 24.4492 83.6787 24.1445 83.7256 23.8398C83.7842 23.5234 83.9072 23.2539 84.0947 23.0312C84.083 23.0312 84.0479 23.0312 83.9893 23.0312C83.9307 23.0195 83.8896 23.0137 83.8662 23.0137C83.6787 23.0137 83.4912 23.043 83.3037 23.1016C83.1162 23.1484 82.9346 23.2129 82.7588 23.2949C82.5947 23.3652 82.4248 23.4355 82.249 23.5059C82.0732 23.5645 81.8975 23.6113 81.7217 23.6465C81.6982 23.6465 81.6514 23.6348 81.5811 23.6113C81.5225 23.5879 81.4814 23.5586 81.458 23.5234C81.4229 23.5352 81.3643 23.5527 81.2822 23.5762C81.2002 23.5996 81.1123 23.6172 81.0186 23.6289C80.9248 23.6406 80.8369 23.6582 80.7549 23.6816C80.6729 23.6934 80.6201 23.7051 80.5967 23.7168H80.5088C80.2744 23.7168 80.1572 23.5996 80.1572 23.3652C80.1572 23.248 80.2334 23.1543 80.3857 23.084C80.5381 23.0137 80.7197 22.9492 80.9307 22.8906C81.1416 22.8203 81.3525 22.7617 81.5635 22.7148C81.7744 22.6562 81.9326 22.5918 82.0381 22.5215C82.3076 22.4277 82.542 22.3574 82.7412 22.3105C82.9404 22.2637 83.1338 22.2285 83.3213 22.2051C83.5088 22.1816 83.6904 22.1699 83.8662 22.1699C84.0537 22.1582 84.2705 22.1523 84.5166 22.1523C84.9854 22.1523 85.4541 22.2109 85.9229 22.3281C86.4033 22.4336 86.8311 22.6094 87.2061 22.8555C87.5928 23.1016 87.9033 23.4238 88.1377 23.8223C88.3838 24.2207 88.5068 24.6953 88.5068 25.2461C88.5068 25.7617 88.3838 26.2305 88.1377 26.6523C87.9033 27.0625 87.6045 27.4316 87.2412 27.7598C86.8896 28.0879 86.5029 28.3809 86.0811 28.6387C85.6709 28.8848 85.2842 29.0957 84.9209 29.2715C84.5693 29.4355 84.2705 29.5703 84.0244 29.6758C83.79 29.7695 83.6729 29.8223 83.6729 29.834V29.8691C83.6729 29.8809 83.6787 29.8867 83.6904 29.8867C83.9365 30.3438 84.1885 30.7539 84.4463 31.1172C84.7158 31.4688 85.0088 31.7734 85.3252 32.0312C85.6533 32.2773 86.0225 32.4707 86.4326 32.6113C86.8428 32.7402 87.3174 32.8047 87.8564 32.8047C88.0322 32.8047 88.208 32.7812 88.3838 32.7344C88.5596 32.6875 88.7295 32.6406 88.8936 32.5938C89.0693 32.5352 89.2393 32.4824 89.4033 32.4355C89.5674 32.3887 89.7373 32.3652 89.9131 32.3652C89.9834 32.3652 90.0596 32.3887 90.1416 32.4355C90.2354 32.4707 90.2822 32.5352 90.2822 32.6289C90.2822 32.8164 90.1475 32.9746 89.8779 33.1035C89.6201 33.2324 89.3271 33.3379 88.999 33.4199C88.6709 33.502 88.3486 33.5605 88.0322 33.5957C87.7158 33.6309 87.5107 33.6484 87.417 33.6484C86.5732 33.6484 85.7881 33.4551 85.0615 33.0684C84.3467 32.6816 83.7725 32.1074 83.3389 31.3457H83.251C83.2275 31.4863 83.1924 31.7031 83.1455 31.9961C83.1104 32.2773 83.0459 32.5645 82.9521 32.8574C82.8701 33.1387 82.7588 33.3906 82.6182 33.6133C82.4893 33.8242 82.3311 33.9297 82.1436 33.9297C82.0029 33.9297 81.8799 33.9121 81.7744 33.877C81.6807 33.8418 81.6338 33.7422 81.6338 33.5781ZM83.7783 28.8672H83.8662C83.8896 28.8555 83.9307 28.8379 83.9893 28.8145C84.0596 28.791 84.0947 28.7734 84.0947 28.7617C84.4814 28.5859 84.8799 28.3926 85.29 28.1816C85.7002 27.959 86.0752 27.7012 86.415 27.4082C86.7549 27.1152 87.0303 26.7871 87.2412 26.4238C87.4639 26.0488 87.5752 25.6152 87.5752 25.123C87.5752 24.8066 87.4873 24.5195 87.3115 24.2617C87.1475 24.0039 86.9307 23.7871 86.6611 23.6113C86.4033 23.4238 86.1221 23.2832 85.8174 23.1895C85.5127 23.084 85.2197 23.0312 84.9385 23.0312H84.71C84.8271 23.125 84.8857 23.2246 84.8857 23.3301C84.8975 23.4355 84.9033 23.5527 84.9033 23.6816C84.9033 23.7168 84.8975 23.7754 84.8857 23.8574C84.8857 23.9277 84.8857 23.9629 84.8857 23.9629L83.7783 28.4277V28.8672ZM93.376 42.2266C93.3643 42.1797 93.3525 42.0918 93.3408 41.9629C93.3408 41.8457 93.3408 41.7578 93.3408 41.6992C93.3408 41.418 93.3701 41.125 93.4287 40.8203C93.499 40.5273 93.5869 40.2285 93.6924 39.9238C93.8096 39.6309 93.9326 39.3438 94.0615 39.0625C94.2021 38.793 94.3486 38.5293 94.501 38.2715C94.7705 37.8027 95.04 37.3516 95.3096 36.918C95.5791 36.4844 95.8604 36.0625 96.1533 35.6523C96.458 35.2422 96.7744 34.8438 97.1025 34.457C97.4307 34.0703 97.7881 33.6836 98.1748 33.2969C98.1748 33.2852 98.1748 33.25 98.1748 33.1914C98.1865 33.1328 98.1924 33.0918 98.1924 33.0684C98.1924 32.916 98.1748 32.7402 98.1396 32.541C98.1162 32.3418 98.0693 32.1543 97.999 31.9785C97.9404 31.8027 97.8467 31.6504 97.7178 31.5215C97.5889 31.3926 97.4307 31.3281 97.2432 31.3281C96.9619 31.3281 96.71 31.3691 96.4873 31.4512C96.2764 31.5215 96.0771 31.627 95.8896 31.7676C95.7021 31.9082 95.5205 32.0664 95.3447 32.2422C95.1807 32.418 95.0107 32.6055 94.835 32.8047C94.7529 32.8398 94.6768 32.8633 94.6064 32.875C94.5479 32.875 94.4775 32.875 94.3955 32.875C94.2549 32.875 94.1611 32.834 94.1143 32.752C94.0791 32.6699 94.0615 32.5645 94.0615 32.4355V32.2773L95.6963 28.9551C95.7666 28.8027 95.8076 28.6445 95.8193 28.4805C95.8428 28.3164 95.8545 28.1582 95.8545 28.0059C95.6904 28.0059 95.4971 28.041 95.2744 28.1113C95.0635 28.1699 94.917 28.2754 94.835 28.4277L92.1807 30.5723C92.0986 30.5957 92.0166 30.6367 91.9346 30.6953C91.8643 30.7422 91.7939 30.7949 91.7236 30.8535C91.665 30.9121 91.6006 30.9648 91.5303 31.0117C91.46 31.0586 91.3838 31.082 91.3018 31.082C91.2197 31.082 91.1553 31.0527 91.1084 30.9941C91.0615 30.9355 91.0381 30.8652 91.0381 30.7832C91.0381 30.6191 91.085 30.4141 91.1787 30.168C91.2842 29.9219 91.4189 29.7461 91.583 29.6406C91.6768 29.5586 91.8467 29.4297 92.0928 29.2539C92.3506 29.0664 92.6201 28.873 92.9014 28.6738C93.1826 28.4746 93.4463 28.2871 93.6924 28.1113C93.9502 27.9238 94.1318 27.8008 94.2373 27.7422C94.4717 27.5781 94.7588 27.4082 95.0986 27.2324C95.4502 27.0566 95.79 26.9688 96.1182 26.9688C96.3643 26.9688 96.5518 27.0742 96.6807 27.2852C96.8213 27.4961 96.8916 27.7129 96.8916 27.9355C96.8916 28.3926 96.8037 28.832 96.6279 29.2539C96.4639 29.6758 96.2939 30.0859 96.1182 30.4844H96.1709H96.1885C96.2236 30.4844 96.2881 30.4785 96.3818 30.4668C96.4873 30.4434 96.5986 30.4258 96.7158 30.4141C96.8447 30.3906 96.9561 30.3672 97.0498 30.3438C97.1553 30.3203 97.2197 30.3086 97.2432 30.3086H97.3135C97.6182 30.3086 97.8701 30.373 98.0693 30.502C98.2803 30.6191 98.4561 30.7715 98.5967 30.959C98.749 31.1465 98.8662 31.3691 98.9482 31.627C99.042 31.873 99.1299 32.1191 99.2119 32.3652C99.5283 32.0957 99.7861 31.8789 99.9854 31.7148C100.185 31.5508 100.349 31.4219 100.478 31.3281C100.618 31.2227 100.741 31.1348 100.847 31.0645C100.952 30.9824 101.075 30.9004 101.216 30.8184C101.368 30.7246 101.55 30.6074 101.761 30.4668C101.972 30.3145 102.247 30.1094 102.587 29.8516C102.669 29.8047 102.774 29.752 102.903 29.6934C103.032 29.623 103.161 29.5879 103.29 29.5879C103.372 29.5879 103.442 29.6406 103.501 29.7461C103.571 29.8516 103.606 29.9453 103.606 30.0273C103.606 30.1562 103.554 30.2734 103.448 30.3789L101.392 31.8379L99.3701 33.4727L99.2998 33.6484C99.2881 33.7773 99.2705 34.0117 99.2471 34.3516C99.2236 34.6914 99.1943 35.0488 99.1592 35.4238C99.1357 35.7988 99.1064 36.1504 99.0713 36.4785C99.0479 36.8066 99.0303 37.041 99.0186 37.1816C98.9951 37.5449 98.9189 37.9375 98.79 38.3594C98.6729 38.7812 98.5205 39.2031 98.333 39.625C98.1455 40.0469 97.917 40.457 97.6475 40.8555C97.3896 41.2539 97.0967 41.6055 96.7686 41.9102C96.4521 42.2148 96.1006 42.4609 95.7139 42.6484C95.3271 42.8359 94.917 42.9297 94.4834 42.9297C94.2256 42.9297 93.9971 42.877 93.7979 42.7715C93.5986 42.6777 93.458 42.4961 93.376 42.2266ZM97.6475 35.2832C97.5889 35.3652 97.4893 35.4941 97.3486 35.6699C97.2197 35.8457 97.085 36.0215 96.9443 36.1973C96.8154 36.373 96.6924 36.5371 96.5752 36.6895C96.4697 36.8535 96.3994 36.9531 96.3643 36.9883C96.1299 37.3867 95.8838 37.7852 95.626 38.1836C95.3799 38.582 95.1572 38.9922 94.958 39.4141C94.7588 39.8359 94.5947 40.2637 94.4658 40.6973C94.3369 41.1426 94.2725 41.6055 94.2725 42.0859C94.835 42.0859 95.3096 41.8984 95.6963 41.5234C96.6221 40.668 97.2666 39.707 97.6299 38.6406C98.0049 37.5742 98.1924 36.4023 98.1924 35.125C98.1924 35.0898 98.1865 35.0254 98.1748 34.9316C98.1748 34.8496 98.1748 34.791 98.1748 34.7559L97.6475 35.2832ZM106.472 30.0449C106.448 29.998 106.407 29.9336 106.349 29.8516C106.302 29.7578 106.243 29.7109 106.173 29.7109C105.95 29.7109 105.722 29.8105 105.487 30.0098C105.265 30.1973 105.048 30.4258 104.837 30.6953C104.638 30.9531 104.462 31.2168 104.31 31.4863C104.169 31.7559 104.081 31.9668 104.046 32.1191C103.999 32.2715 103.976 32.4531 103.976 32.6641C103.976 32.875 103.958 33.0742 103.923 33.2617C103.899 33.4492 103.835 33.6074 103.729 33.7363C103.636 33.8652 103.466 33.9297 103.22 33.9297C103.067 33.9297 102.962 33.9004 102.903 33.8418C102.856 33.7715 102.833 33.6602 102.833 33.5078C102.915 32.9453 102.985 32.4824 103.044 32.1191C103.114 31.7559 103.173 31.4395 103.22 31.1699C103.278 30.8887 103.331 30.6191 103.378 30.3613C103.437 30.0918 103.501 29.7695 103.571 29.3945C103.642 29.0195 103.718 28.5625 103.8 28.0234C103.882 27.4727 103.981 26.7754 104.099 25.9316C104.099 25.7559 104.11 25.5098 104.134 25.1934C104.157 24.8652 104.198 24.5195 104.257 24.1562C104.327 23.7812 104.415 23.4062 104.521 23.0312C104.626 22.6445 104.755 22.2988 104.907 21.9941C105.071 21.6895 105.259 21.4434 105.47 21.2559C105.681 21.0566 105.927 20.957 106.208 20.957C106.407 20.957 106.565 21.0273 106.683 21.168C106.812 21.2969 106.905 21.4551 106.964 21.6426C107.034 21.8301 107.075 22.0293 107.087 22.2402C107.099 22.4395 107.104 22.6035 107.104 22.7324C107.104 23.0254 107.081 23.3066 107.034 23.5762C106.987 23.834 106.929 24.0977 106.858 24.3672C106.788 24.625 106.712 24.8887 106.63 25.1582C106.548 25.416 106.478 25.6738 106.419 25.9316L105.294 28.0762L104.661 29.4473L104.749 29.6406C104.995 29.3477 105.247 29.125 105.505 28.9727C105.763 28.8086 106.085 28.7148 106.472 28.6914C106.647 28.6797 106.794 28.7324 106.911 28.8496C107.04 28.9668 107.146 29.1191 107.228 29.3066C107.31 29.4824 107.368 29.6641 107.403 29.8516C107.45 30.0391 107.479 30.1914 107.491 30.3086C107.491 30.3789 107.485 30.4902 107.474 30.6426C107.462 30.7949 107.45 30.9707 107.438 31.1699C107.427 31.3691 107.415 31.5801 107.403 31.8027C107.403 32.0137 107.415 32.2129 107.438 32.4004C107.462 32.5879 107.509 32.752 107.579 32.8926C107.661 33.0215 107.767 33.0977 107.896 33.1211C108.353 33.0625 108.757 32.9863 109.108 32.8926C109.472 32.7871 109.788 32.6465 110.058 32.4707C110.327 32.2832 110.55 32.0488 110.726 31.7676C110.913 31.4863 111.054 31.1406 111.147 30.7305C111.229 30.6133 111.347 30.5547 111.499 30.5547C111.675 30.5547 111.786 30.6191 111.833 30.748C111.892 30.877 111.921 31.0176 111.921 31.1699C111.921 31.6387 111.769 32.0547 111.464 32.418C111.171 32.7695 110.796 33.0625 110.339 33.2969C109.882 33.5312 109.39 33.7129 108.862 33.8418C108.335 33.959 107.849 34.0176 107.403 34.0176C107.122 34.0176 106.929 33.9238 106.823 33.7363C106.718 33.5371 106.653 33.3027 106.63 33.0332C106.618 32.752 106.618 32.4707 106.63 32.1895C106.642 31.9082 106.642 31.6797 106.63 31.5039C106.63 31.4453 106.624 31.3516 106.612 31.2227C106.601 31.082 106.583 30.9355 106.56 30.7832C106.548 30.6309 106.53 30.4844 106.507 30.3438C106.483 30.2031 106.472 30.1035 106.472 30.0449ZM105.03 25.8262C105.03 25.8613 105.03 25.9199 105.03 26.002C105.03 26.084 105.03 26.1602 105.03 26.2305C105.042 26.3008 105.048 26.3652 105.048 26.4238C105.048 26.4824 105.048 26.5176 105.048 26.5293L105.136 26.6172C105.253 26.5469 105.358 26.4238 105.452 26.248C105.558 26.0723 105.651 25.8613 105.733 25.6152C105.815 25.3691 105.886 25.1113 105.944 24.8418C106.015 24.5605 106.073 24.2852 106.12 24.0156C106.167 23.7461 106.202 23.5 106.226 23.2773C106.261 23.0547 106.278 22.873 106.278 22.7324C106.278 22.6855 106.272 22.5977 106.261 22.4688C106.261 22.3398 106.255 22.2637 106.243 22.2402L106.155 22.0645C105.874 22.2871 105.657 22.5508 105.505 22.8555C105.353 23.1602 105.241 23.4766 105.171 23.8047C105.101 24.1328 105.06 24.4727 105.048 24.8242C105.036 25.1758 105.03 25.5098 105.03 25.8262ZM111.587 31.2578C111.61 31.1875 111.646 31.0645 111.692 30.8887C111.751 30.7012 111.804 30.502 111.851 30.291C111.909 30.0801 111.956 29.8809 111.991 29.6934C112.038 29.4941 112.073 29.3594 112.097 29.2891C112.167 29.0078 112.249 28.7031 112.343 28.375C112.448 28.0469 112.589 27.7422 112.765 27.4609C112.94 27.1797 113.163 26.9512 113.433 26.7754C113.714 26.5879 114.06 26.4941 114.47 26.4941C114.622 26.4941 114.728 26.5527 114.786 26.6699C114.856 26.7754 114.915 26.8926 114.962 27.0215C114.962 27.0684 114.962 27.1562 114.962 27.2852C114.974 27.4023 114.979 27.4844 114.979 27.5312C114.979 28.0352 114.927 28.4805 114.821 28.8672C114.728 29.2539 114.575 29.6113 114.364 29.9395C114.165 30.2676 113.919 30.5781 113.626 30.8711C113.333 31.1523 112.999 31.4512 112.624 31.7676C112.612 31.8027 112.595 31.8613 112.571 31.9434C112.548 32.0254 112.536 32.084 112.536 32.1191V32.1543C112.536 32.3652 112.571 32.5352 112.642 32.6641C112.712 32.793 112.806 32.8984 112.923 32.9805C113.052 33.0508 113.192 33.0977 113.345 33.1211C113.509 33.1328 113.685 33.1387 113.872 33.1387C114.423 33.1387 114.95 33.0625 115.454 32.9102C115.958 32.7578 116.421 32.5117 116.843 32.1719C116.901 32.1133 116.972 32.0312 117.054 31.9258C117.147 31.8086 117.241 31.6914 117.335 31.5742C117.429 31.457 117.528 31.3574 117.634 31.2754C117.739 31.1816 117.851 31.1348 117.968 31.1348C118.085 31.1348 118.155 31.1816 118.179 31.2754C118.202 31.3691 118.214 31.4629 118.214 31.5566C118.214 31.8145 118.132 32.0605 117.968 32.2949C117.815 32.5176 117.61 32.7227 117.353 32.9102C117.106 33.0859 116.819 33.2441 116.491 33.3848C116.175 33.5254 115.858 33.6426 115.542 33.7363C115.226 33.8301 114.921 33.9004 114.628 33.9473C114.347 33.9941 114.106 34.0176 113.907 34.0176C113.286 34.0176 112.765 33.918 112.343 33.7188C111.933 33.5078 111.651 33.0918 111.499 32.4707L111.587 31.2578ZM114.101 27.7949C113.866 28.0059 113.679 28.1992 113.538 28.375C113.409 28.5391 113.304 28.7148 113.222 28.9023C113.151 29.0781 113.087 29.2715 113.028 29.4824C112.981 29.6934 112.929 29.9395 112.87 30.2207C113.093 30.0449 113.274 29.8691 113.415 29.6934C113.567 29.5176 113.69 29.3359 113.784 29.1484C113.878 28.9609 113.948 28.7617 113.995 28.5508C114.042 28.3281 114.077 28.0762 114.101 27.7949ZM117.968 33.6484L118.565 30.1328V29.6406L118.917 27.3027C118.952 27.2559 119.017 27.2324 119.11 27.2324C119.204 27.2207 119.269 27.2148 119.304 27.2148C119.397 27.2148 119.503 27.25 119.62 27.3203C119.749 27.3789 119.813 27.4609 119.813 27.5664V28.7617C119.86 28.7266 119.942 28.6562 120.06 28.5508C120.177 28.4453 120.3 28.334 120.429 28.2168C120.569 28.0996 120.698 27.9883 120.815 27.8828C120.933 27.7773 121.009 27.7012 121.044 27.6543C121.173 27.5371 121.325 27.4375 121.501 27.3555C121.688 27.2734 121.864 27.2324 122.028 27.2324C122.368 27.2324 122.632 27.3379 122.819 27.5488C123.019 27.7598 123.118 28.0293 123.118 28.3574C123.118 28.3809 123.112 28.3984 123.101 28.4102C123.101 28.4102 123.101 28.4219 123.101 28.4453V28.5156L122.433 31.5215V32.9453C122.796 32.9453 123.171 32.875 123.558 32.7344C123.956 32.582 124.337 32.3945 124.7 32.1719C125.063 31.9492 125.403 31.6973 125.72 31.416C126.036 31.123 126.312 30.8418 126.546 30.5723H126.616C126.698 30.5723 126.763 30.6016 126.81 30.6602C126.868 30.707 126.897 30.7715 126.897 30.8535C126.897 31.1113 126.81 31.3691 126.634 31.627C126.47 31.873 126.253 32.1074 125.983 32.3301C125.726 32.5527 125.421 32.7637 125.069 32.9629C124.729 33.1621 124.39 33.332 124.05 33.4727C123.722 33.6133 123.399 33.7246 123.083 33.8066C122.767 33.8887 122.497 33.9297 122.274 33.9297C122.052 33.9297 121.876 33.8887 121.747 33.8066C121.618 33.7246 121.519 33.6191 121.448 33.4902C121.39 33.3496 121.349 33.1973 121.325 33.0332C121.313 32.8691 121.308 32.6934 121.308 32.5059V32.2773L121.993 28.8672V28.2871C121.712 28.2871 121.431 28.4102 121.149 28.6562C120.88 28.9023 120.634 29.2012 120.411 29.5527C120.2 29.9043 120.013 30.2617 119.849 30.625C119.696 30.9883 119.585 31.2871 119.515 31.5215C119.491 31.6035 119.456 31.75 119.409 31.9609C119.362 32.1719 119.315 32.3945 119.269 32.6289C119.233 32.8633 119.198 33.0859 119.163 33.2969C119.128 33.5078 119.104 33.6602 119.093 33.7539C119.104 33.8242 119.081 33.877 119.022 33.9121C118.976 33.9473 118.917 33.9766 118.847 34C118.776 34.0117 118.7 34.0176 118.618 34.0176C118.548 34.0176 118.489 34.0176 118.442 34.0176C118.337 34.0176 118.231 34 118.126 33.9648C118.021 33.9297 117.968 33.8418 117.968 33.7012V33.6484ZM127.46 42.5781C127.401 42.4023 127.349 42.2383 127.302 42.0859C127.267 41.9336 127.243 41.7871 127.231 41.6465C127.22 41.5176 127.208 41.3828 127.196 41.2422C127.196 41.1133 127.196 40.9551 127.196 40.7676C127.196 40.7441 127.196 40.6973 127.196 40.627C127.196 40.5684 127.196 40.498 127.196 40.416C127.196 40.3457 127.196 40.2754 127.196 40.2051C127.208 40.1465 127.214 40.1055 127.214 40.082C127.343 39.5078 127.483 38.9395 127.636 38.377C127.8 37.8262 127.993 37.2871 128.216 36.7598C128.438 36.2441 128.708 35.752 129.024 35.2832C129.341 34.8262 129.733 34.3984 130.202 34C130.214 33.9414 130.231 33.8242 130.255 33.6484C130.278 33.4727 130.308 33.291 130.343 33.1035C130.378 32.916 130.401 32.7402 130.413 32.5762C130.437 32.4004 130.454 32.2715 130.466 32.1895C130.466 32.166 130.46 32.1133 130.448 32.0312C130.448 31.9375 130.448 31.8789 130.448 31.8555H130.396C129.985 32.0664 129.593 32.2539 129.218 32.418C128.843 32.5703 128.433 32.6465 127.987 32.6465C127.741 32.6465 127.53 32.6055 127.354 32.5234C127.19 32.4414 127.056 32.3301 126.95 32.1895C126.845 32.0488 126.763 31.8848 126.704 31.6973C126.657 31.5098 126.628 31.3047 126.616 31.082L127.038 29.7988C127.144 29.5059 127.272 29.1953 127.425 28.8672C127.589 28.5273 127.771 28.2051 127.97 27.9004C128.181 27.5957 128.421 27.3203 128.69 27.0742C128.96 26.8164 129.265 26.6348 129.604 26.5293C130.062 26.459 130.483 26.4707 130.87 26.5645C131.269 26.6582 131.614 26.793 131.907 26.9688C132.2 27.1445 132.435 27.3379 132.61 27.5488C132.798 27.748 132.909 27.9238 132.944 28.0762C132.921 28.252 132.868 28.4395 132.786 28.6387C132.704 28.8262 132.61 29.0195 132.505 29.2188C132.411 29.4062 132.312 29.582 132.206 29.7461C132.112 29.8984 132.042 30.0273 131.995 30.1328C131.901 30.3438 131.819 30.5664 131.749 30.8008C131.679 31.0352 131.614 31.2754 131.556 31.5215C131.509 31.7676 131.468 32.0195 131.433 32.2773C131.409 32.5234 131.397 32.752 131.397 32.9629V33.2266C131.995 32.875 132.64 32.5996 133.331 32.4004C134.022 32.2012 134.708 32.1016 135.388 32.1016C135.47 32.1016 135.575 32.1016 135.704 32.1016C135.845 32.1016 135.974 32.1191 136.091 32.1543C136.22 32.1777 136.331 32.2305 136.425 32.3125C136.519 32.3828 136.565 32.4883 136.565 32.6289C136.565 32.8516 136.442 32.9629 136.196 32.9629C136.161 32.9629 136.079 32.957 135.95 32.9453C135.821 32.9219 135.733 32.8984 135.687 32.875C135.604 32.8867 135.464 32.9102 135.265 32.9453C135.065 32.9805 134.849 33.0215 134.614 33.0684C134.38 33.1152 134.163 33.1621 133.964 33.209C133.765 33.2559 133.624 33.2852 133.542 33.2969C133.507 33.3086 133.437 33.3379 133.331 33.3848C133.237 33.4199 133.132 33.4609 133.015 33.5078C132.897 33.5547 132.78 33.6016 132.663 33.6484C132.558 33.6836 132.487 33.7188 132.452 33.7539C132.358 33.7773 132.247 33.8242 132.118 33.8945C132.001 33.9531 131.884 34.0117 131.767 34.0703C131.649 34.1406 131.544 34.1992 131.45 34.2461C131.368 34.3047 131.327 34.3398 131.327 34.3516L131.151 34.5977L130.729 39.0449C130.694 39.3496 130.606 39.7188 130.466 40.1523C130.337 40.5859 130.161 41.002 129.938 41.4004C129.716 41.7988 129.44 42.1328 129.112 42.4023C128.796 42.6836 128.433 42.8242 128.022 42.8242C127.905 42.8242 127.8 42.8066 127.706 42.7715C127.624 42.748 127.542 42.6836 127.46 42.5781ZM128.058 40.8555C128.069 40.9609 128.081 41.1133 128.093 41.3125C128.116 41.5117 128.157 41.6758 128.216 41.8047C128.438 41.7461 128.644 41.582 128.831 41.3125C129.019 41.0547 129.177 40.7617 129.306 40.4336C129.435 40.1055 129.54 39.7773 129.622 39.4492C129.704 39.1328 129.757 38.8867 129.78 38.7109C129.827 38.4414 129.862 38.1836 129.886 37.9375C129.921 37.7031 129.95 37.4746 129.974 37.252C129.997 37.041 130.015 36.8301 130.026 36.6191C130.038 36.4082 130.044 36.1797 130.044 35.9336C130.044 35.8984 130.038 35.8164 130.026 35.6875C130.026 35.5703 130.026 35.4941 130.026 35.459C129.71 35.8691 129.446 36.2852 129.235 36.707C129.024 37.1289 128.843 37.5566 128.69 37.9902C128.55 38.4355 128.427 38.8926 128.321 39.3613C128.228 39.8418 128.14 40.3398 128.058 40.8555ZM127.636 31.416C127.671 31.5098 127.718 31.5918 127.776 31.6621C127.847 31.7324 127.94 31.7676 128.058 31.7676C128.538 31.7676 128.966 31.668 129.341 31.4688C129.728 31.2578 130.067 30.9883 130.36 30.6602C130.653 30.332 130.905 29.9746 131.116 29.5879C131.339 29.2012 131.526 28.8145 131.679 28.4277V28.3574C131.491 27.9707 131.274 27.7246 131.028 27.6191C130.794 27.502 130.542 27.4844 130.272 27.5664C130.015 27.6367 129.751 27.7891 129.481 28.0234C129.212 28.2461 128.954 28.5039 128.708 28.7969C128.474 29.0781 128.263 29.377 128.075 29.6934C127.888 30.0098 127.741 30.3027 127.636 30.5723C127.53 30.8301 127.472 31.041 127.46 31.2051C127.448 31.3691 127.507 31.4395 127.636 31.416Z" fill="black"/>
<defs>
<filter id="filter0_i" x="3.896" y="23.1561" width="241.12" height="89.5639" filterUnits="userSpaceOnUse" color-interpolation-filters="sRGB">
<feFlood flood-opacity="0" result="BackgroundImageFix"/>
<feBlend mode="normal" in="SourceGraphic" in2="BackgroundImageFix" result="shape"/>
<feColorMatrix in="SourceAlpha" type="matrix" values="0 0 0 0 0 0 0 0 0 0 0 0 0 0 0 0 0 0 127 0" result="hardAlpha"/>
<feOffset dy="4"/>
<feGaussianBlur stdDeviation="2"/>
<feComposite in2="hardAlpha" operator="arithmetic" k2="-1" k3="1"/>
<feColorMatrix type="matrix" values="0 0 0 0 0 0 0 0 0 0 0 0 0 0 0 0 0 0 0.25 0"/>
<feBlend mode="normal" in2="shape" result="effect1_innerShadow"/>
</filter>
</defs>
</svg>
