<svg width="261" height="122" viewBox="0 0 261 122" fill="none" xmlns="http://www.w3.org/2000/svg">
<g filter="url(#filter0_i)">
<path d="M34.848 89H5.28C5.024 88.616 4.896 88.104 4.896 87.464C4.896 86.76 5.12 86.12 5.568 85.544L12 84.776V31.496H6.432C5.408 31.496 4.896 31.048 4.896 30.152C4.896 29.704 5.056 28.936 5.376 27.848L5.568 27.08H32.16C35.616 27.08 38.656 27.752 41.28 29.096C43.968 30.376 46.048 32.2 47.52 34.568C49.056 36.936 49.824 39.656 49.824 42.728C49.824 45.672 48.96 48.36 47.232 50.792C45.504 53.224 43.168 55.08 40.224 56.36C44.512 57.32 47.84 59.208 50.208 62.024C52.576 64.776 53.76 68.232 53.76 72.392C53.76 75.656 52.96 78.536 51.36 81.032C49.76 83.528 47.552 85.48 44.736 86.888C41.92 88.296 38.624 89 34.848 89ZM17.376 84.584H34.848C38.944 84.584 42.176 83.496 44.544 81.32C46.912 79.144 48.096 76.2 48.096 72.488C48.096 68.52 46.816 65.288 44.256 62.792C41.696 60.296 38.432 59.048 34.464 59.048H17.376V84.584ZM17.376 54.728H32.16C35.68 54.728 38.56 53.608 40.8 51.368C43.04 49.128 44.16 46.312 44.16 42.92C44.16 39.528 43.04 36.776 40.8 34.664C38.56 32.552 35.68 31.496 32.16 31.496H17.376V54.728ZM80.8058 89H60.3578C60.1658 88.488 60.0698 88.04 60.0698 87.656C60.0698 87.144 60.2618 86.536 60.6458 85.832L68.1338 85.064V29.192H59.8778C59.6858 28.744 59.5898 28.296 59.5898 27.848C59.5898 27.272 59.7818 26.664 60.1658 26.024L70.6298 24.2C71.7178 24.776 72.6138 25.48 73.3178 26.312V84.872H79.8458C80.8698 84.872 81.3818 85.32 81.3818 86.216C81.3818 86.6 81.2538 87.272 80.9978 88.232L80.8058 89ZM110.679 85.736C114.007 85.736 116.919 84.872 119.415 83.144C121.975 81.416 123.927 78.984 125.271 75.848C126.679 72.712 127.383 69.096 127.383 65C127.383 60.904 126.679 57.288 125.271 54.152C123.927 51.016 121.975 48.584 119.415 46.856C116.919 45.128 114.007 44.264 110.679 44.264C107.351 44.264 104.407 45.128 101.847 46.856C99.351 48.584 97.399 51.016 95.991 54.152C94.647 57.288 93.975 60.904 93.975 65C93.975 69.096 94.647 72.712 95.991 75.848C97.399 78.984 99.351 81.416 101.847 83.144C104.343 84.872 107.287 85.736 110.679 85.736ZM110.679 89.96C106.199 89.96 102.295 88.936 98.967 86.888C95.703 84.776 93.143 81.864 91.287 78.152C89.431 74.376 88.503 69.992 88.503 65C88.503 60.008 89.431 55.656 91.287 51.944C93.143 48.168 95.703 45.256 98.967 43.208C102.295 41.096 106.199 40.04 110.679 40.04C115.159 40.04 119.031 41.096 122.295 43.208C125.623 45.256 128.215 48.168 130.071 51.944C131.927 55.656 132.855 60.008 132.855 65C132.855 69.992 131.927 74.376 130.071 78.152C128.215 81.864 125.623 84.776 122.295 86.888C119.031 88.936 115.159 89.96 110.679 89.96ZM154.198 79.688H165.142C170.454 79.688 174.646 80.84 177.718 83.144C180.854 85.448 182.422 88.552 182.422 92.456C182.422 97.064 180.342 100.744 176.182 103.496C172.022 106.312 166.486 107.72 159.574 107.72C152.854 107.72 147.574 106.472 143.734 103.976C139.894 101.48 137.974 98.056 137.974 93.704C137.974 89.032 140.758 85.096 146.326 81.896C144.726 80.616 143.926 78.856 143.926 76.616C143.926 73.544 145.494 70.632 148.63 67.88C145.11 64.936 143.35 60.936 143.35 55.88C143.35 51.144 144.886 47.336 147.958 44.456C151.094 41.512 155.19 40.04 160.246 40.04C164.598 40.04 168.214 41.128 171.094 43.304L181.366 42.056C182.39 41.992 182.902 42.44 182.902 43.4C182.902 43.784 182.774 44.456 182.518 45.416L182.23 46.472H174.262C175.158 47.752 175.862 49.192 176.374 50.792C176.886 52.328 177.142 54.024 177.142 55.88C177.142 60.616 175.574 64.456 172.438 67.4C169.366 70.28 165.302 71.72 160.246 71.72C156.982 71.72 154.07 71.08 151.51 69.8C149.718 71.4 148.822 73.288 148.822 75.464C148.822 78.28 150.614 79.688 154.198 79.688ZM165.142 83.912H152.182C151.286 83.912 150.422 83.816 149.59 83.624C145.366 86.376 143.254 89.64 143.254 93.416C143.254 96.488 144.726 98.92 147.67 100.712C150.614 102.568 154.582 103.496 159.574 103.496C164.886 103.496 169.142 102.472 172.342 100.424C175.542 98.44 177.142 95.784 177.142 92.456C177.142 89.768 176.086 87.688 173.974 86.216C171.862 84.68 168.918 83.912 165.142 83.912ZM172.246 55.88C172.246 52.296 171.158 49.448 168.982 47.336C166.806 45.224 163.894 44.168 160.246 44.168C156.598 44.168 153.686 45.224 151.51 47.336C149.334 49.448 148.246 52.296 148.246 55.88C148.246 59.464 149.334 62.312 151.51 64.424C153.686 66.536 156.598 67.592 160.246 67.592C163.894 67.592 166.806 66.536 168.982 64.424C171.158 62.312 172.246 59.464 172.246 55.88ZM189.7 83.912L189.508 73.448C189.956 73.256 190.436 73.16 190.948 73.16C191.588 73.16 192.196 73.352 192.772 73.736L194.788 83.624C197.924 85.032 201.54 85.736 205.636 85.736C209.604 85.736 212.74 84.904 215.044 83.24C217.348 81.576 218.5 79.336 218.5 76.52C218.5 74.216 217.604 72.264 215.812 70.664C214.084 69.064 211.332 67.72 207.556 66.632C203.268 65.416 199.876 64.168 197.38 62.888C194.884 61.544 193.092 60.04 192.004 58.376C190.98 56.648 190.468 54.6 190.468 52.232C190.468 48.456 191.908 45.48 194.788 43.304C197.732 41.128 201.732 40.04 206.788 40.04C209.092 40.04 211.46 40.264 213.892 40.712C216.388 41.16 218.244 41.736 219.46 42.44C220.164 43.272 220.772 44.232 221.284 45.32L221.476 54.824C220.964 55.016 220.484 55.112 220.036 55.112C219.396 55.112 218.788 54.92 218.212 54.536L216.196 45.704C213.444 44.68 210.404 44.168 207.076 44.168C199.46 44.168 195.652 46.856 195.652 52.232C195.652 53.704 196.004 54.984 196.708 56.072C197.476 57.096 198.788 58.056 200.644 58.952C202.5 59.848 205.06 60.808 208.324 61.832C213.7 63.432 217.604 65.416 220.036 67.784C222.532 70.088 223.78 73 223.78 76.52C223.78 80.68 222.18 83.976 218.98 86.408C215.78 88.776 211.332 89.96 205.636 89.96C202.948 89.96 200.324 89.672 197.764 89.096C195.268 88.52 193.188 87.752 191.524 86.792C190.82 85.96 190.212 85 189.7 83.912ZM244.016 85.448C244.016 86.792 243.568 87.88 242.672 88.712C241.84 89.544 240.688 89.96 239.216 89.96C237.744 89.96 236.56 89.544 235.664 88.712C234.832 87.88 234.416 86.792 234.416 85.448C234.416 84.104 234.832 83.016 235.664 82.184C236.56 81.352 237.744 80.936 239.216 80.936C240.688 80.936 241.84 81.352 242.672 82.184C243.568 83.016 244.016 84.104 244.016 85.448Z" fill="black"/>
</g>
<path d="M5.28 89L4.44795 89.5547L4.74482 90H5.28V89ZM5.568 85.544L5.44944 84.5511L5.03494 84.6005L4.77865 84.9301L5.568 85.544ZM12 84.776L12.1186 85.7689L13 85.6637V84.776H12ZM12 31.496H13V30.496H12V31.496ZM5.376 27.848L6.33537 28.1302L6.34116 28.1105L6.34614 28.0905L5.376 27.848ZM5.568 27.08V26.08H4.78722L4.59786 26.8375L5.568 27.08ZM41.28 29.096L40.8241 29.986L40.837 29.9926L40.8501 29.9989L41.28 29.096ZM47.52 34.568L46.6707 35.0959L46.6758 35.1041L46.681 35.1122L47.52 34.568ZM47.232 50.792L46.4168 50.2128L46.4168 50.2128L47.232 50.792ZM40.224 56.36L39.8253 55.4429L37.0127 56.6658L40.0055 57.3358L40.224 56.36ZM50.208 62.024L49.4426 62.6676L49.45 62.6762L50.208 62.024ZM51.36 81.032L52.2019 81.5717L52.2019 81.5717L51.36 81.032ZM44.736 86.888L44.2888 85.9936L44.2888 85.9936L44.736 86.888ZM17.376 84.584H16.376V85.584H17.376V84.584ZM44.544 81.32L43.8674 80.5837L43.8674 80.5837L44.544 81.32ZM44.256 62.792L43.5579 63.508L43.5579 63.508L44.256 62.792ZM17.376 59.048V58.048H16.376V59.048H17.376ZM17.376 54.728H16.376V55.728H17.376V54.728ZM17.376 31.496V30.496H16.376V31.496H17.376ZM34.848 88H5.28V90H34.848V88ZM6.11205 88.4453C6.00036 88.2778 5.896 87.9804 5.896 87.464H3.896C3.896 88.2276 4.04764 88.9542 4.44795 89.5547L6.11205 88.4453ZM5.896 87.464C5.896 86.991 6.04051 86.5653 6.35735 86.1579L4.77865 84.9301C4.1995 85.6747 3.896 86.529 3.896 87.464H5.896ZM5.68656 86.5369L12.1186 85.7689L11.8814 83.7831L5.44944 84.5511L5.68656 86.5369ZM13 84.776V31.496H11V84.776H13ZM12 30.496H6.432V32.496H12V30.496ZM6.432 30.496C6.04378 30.496 5.93938 30.4082 5.9385 30.4074C5.9374 30.4065 5.93728 30.4063 5.93673 30.4055C5.93603 30.4045 5.93198 30.3984 5.92649 30.384C5.91499 30.3538 5.896 30.2831 5.896 30.152H3.896C3.896 30.7914 4.08487 31.443 4.6215 31.9126C5.13262 32.3598 5.79622 32.496 6.432 32.496V30.496ZM5.896 30.152C5.896 29.8653 6.01349 29.2245 6.33537 28.1302L4.41663 27.5658C4.09851 28.6475 3.896 29.5427 3.896 30.152H5.896ZM6.34614 28.0905L6.53814 27.3225L4.59786 26.8375L4.40586 27.6055L6.34614 28.0905ZM5.568 28.08H32.16V26.08H5.568V28.08ZM32.16 28.08C35.4847 28.08 38.3636 28.7258 40.8241 29.986L41.7359 28.206C38.9484 26.7782 35.7473 26.08 32.16 26.08V28.08ZM40.8501 29.9989C43.3775 31.2024 45.3067 32.9016 46.6707 35.0959L48.3693 34.0401C46.7893 31.4984 44.5585 29.5496 41.7099 28.1931L40.8501 29.9989ZM46.681 35.1122C48.1027 37.3038 48.824 39.8314 48.824 42.728H50.824C50.824 39.4806 50.0093 36.5681 48.359 34.0238L46.681 35.1122ZM48.824 42.728C48.824 45.4615 48.0263 47.9476 46.4168 50.2128L48.0472 51.3712C49.8937 48.7724 50.824 45.8825 50.824 42.728H48.824ZM46.4168 50.2128C44.8023 52.4851 42.6155 54.2298 39.8253 55.4429L40.6227 57.2771C43.7205 55.9302 46.2057 53.9629 48.0472 51.3712L46.4168 50.2128ZM40.0055 57.3358C44.1226 58.2576 47.2415 60.05 49.4426 62.6676L50.9734 61.3804C48.4385 58.366 44.9014 56.3824 40.4425 55.3842L40.0055 57.3358ZM49.45 62.6762C51.6393 65.2205 52.76 68.4343 52.76 72.392H54.76C54.76 68.0297 53.5127 64.3315 50.966 61.3718L49.45 62.6762ZM52.76 72.392C52.76 75.4847 52.0046 78.1735 50.5181 80.4923L52.2019 81.5717C53.9154 78.8985 54.76 75.8273 54.76 72.392H52.76ZM50.5181 80.4923C49.0214 82.8272 46.9541 84.6609 44.2888 85.9936L45.1832 87.7824C48.1499 86.2991 50.4986 84.2288 52.2019 81.5717L50.5181 80.4923ZM44.2888 85.9936C41.6367 87.3196 38.4994 88 34.848 88V90C38.7486 90 42.2033 89.2724 45.1832 87.7824L44.2888 85.9936ZM17.376 85.584H34.848V83.584H17.376V85.584ZM34.848 85.584C39.1235 85.584 42.6217 84.4445 45.2206 82.0563L43.8674 80.5837C41.7303 82.5475 38.7645 83.584 34.848 83.584V85.584ZM45.2206 82.0563C47.8272 79.6611 49.096 76.4325 49.096 72.488H47.096C47.096 75.9675 45.9968 78.6269 43.8674 80.5837L45.2206 82.0563ZM49.096 72.488C49.096 68.283 47.7293 64.7818 44.9541 62.076L43.5579 63.508C45.9027 65.7942 47.096 68.757 47.096 72.488H49.096ZM44.9541 62.076C42.1861 59.3772 38.6616 58.048 34.464 58.048V60.048C38.2024 60.048 41.2059 61.2148 43.5579 63.508L44.9541 62.076ZM34.464 58.048H17.376V60.048H34.464V58.048ZM16.376 59.048V84.584H18.376V59.048H16.376ZM17.376 55.728H32.16V53.728H17.376V55.728ZM32.16 55.728C35.9129 55.728 39.0579 54.5243 41.5071 52.0751L40.0929 50.6609C38.0621 52.6917 35.4471 53.728 32.16 53.728V55.728ZM41.5071 52.0751C43.9488 49.6334 45.16 46.5564 45.16 42.92H43.16C43.16 46.0676 42.1312 48.6226 40.0929 50.6609L41.5071 52.0751ZM45.16 42.92C45.16 39.2837 43.9479 36.2577 41.486 33.9364L40.114 35.3916C42.1321 37.2943 43.16 39.7723 43.16 42.92H45.16ZM41.486 33.9364C39.0337 31.6242 35.8957 30.496 32.16 30.496V32.496C35.4643 32.496 38.0863 33.4798 40.114 35.3916L41.486 33.9364ZM32.16 30.496H17.376V32.496H32.16V30.496ZM16.376 31.496V54.728H18.376V31.496H16.376ZM80.8058 89V90H81.5865L81.7759 89.2425L80.8058 89ZM60.3578 89L59.4214 89.3511L59.6647 90H60.3578V89ZM60.6458 85.832L60.5437 84.8372L60.02 84.8909L59.7679 85.3531L60.6458 85.832ZM68.1338 85.064L68.2358 86.0588L69.1338 85.9667V85.064H68.1338ZM68.1338 29.192H69.1338V28.192H68.1338V29.192ZM59.8778 29.192L58.9586 29.5859L59.2184 30.192H59.8778V29.192ZM60.1658 26.024L59.994 25.0389L59.5435 25.1174L59.3083 25.5095L60.1658 26.024ZM70.6298 24.2L71.0976 23.3162L70.7952 23.1561L70.458 23.2149L70.6298 24.2ZM73.3178 26.312H74.3178V25.9457L74.0811 25.6661L73.3178 26.312ZM73.3178 84.872H72.3178V85.872H73.3178V84.872ZM80.9978 88.232L80.0315 87.9743L80.0295 87.9819L80.0276 87.9895L80.9978 88.232ZM80.8058 88H60.3578V90H80.8058V88ZM61.2941 88.6489C61.1278 88.2054 61.0698 87.8809 61.0698 87.656H59.0698C59.0698 88.1991 59.2037 88.7706 59.4214 89.3511L61.2941 88.6489ZM61.0698 87.656C61.0698 87.3801 61.1787 86.9433 61.5236 86.3109L59.7679 85.3531C59.3448 86.1287 59.0698 86.9079 59.0698 87.656H61.0698ZM60.7478 86.8268L68.2358 86.0588L68.0317 84.0692L60.5437 84.8372L60.7478 86.8268ZM69.1338 85.064V29.192H67.1338V85.064H69.1338ZM68.1338 28.192H59.8778V30.192H68.1338V28.192ZM60.7969 28.7981C60.6535 28.4635 60.5898 28.149 60.5898 27.848H58.5898C58.5898 28.4429 58.718 29.0245 58.9586 29.5859L60.7969 28.7981ZM60.5898 27.848C60.5898 27.4994 60.7055 27.0681 61.0232 26.5385L59.3083 25.5095C58.858 26.2599 58.5898 27.0446 58.5898 27.848H60.5898ZM60.3375 27.0091L70.8015 25.1851L70.458 23.2149L59.994 25.0389L60.3375 27.0091ZM70.1619 25.0838C71.1516 25.6078 71.9428 26.2352 72.5544 26.9579L74.0811 25.6661C73.2847 24.7248 72.2839 23.9442 71.0976 23.3162L70.1619 25.0838ZM72.3178 26.312V84.872H74.3178V26.312H72.3178ZM73.3178 85.872H79.8458V83.872H73.3178V85.872ZM79.8458 85.872C80.234 85.872 80.3384 85.9598 80.3392 85.9606C80.3403 85.9615 80.3405 85.9617 80.341 85.9625C80.3417 85.9635 80.3458 85.9696 80.3513 85.984C80.3628 86.0142 80.3818 86.0848 80.3818 86.216H82.3818C82.3818 85.5766 82.1929 84.925 81.6563 84.4554C81.1451 84.0082 80.4815 83.872 79.8458 83.872V85.872ZM80.3818 86.216C80.3818 86.4524 80.2896 87.0065 80.0315 87.9743L81.964 88.4897C82.2179 87.5375 82.3818 86.7476 82.3818 86.216H80.3818ZM80.0276 87.9895L79.8356 88.7575L81.7759 89.2425L81.9679 88.4745L80.0276 87.9895ZM119.415 83.144L118.855 82.3151L118.846 82.3218L119.415 83.144ZM125.271 75.848L124.359 75.4384L124.355 75.4462L124.352 75.4541L125.271 75.848ZM125.271 54.152L124.352 54.5459L124.355 54.5538L124.359 54.5616L125.271 54.152ZM119.415 46.856L118.846 47.6782L118.856 47.6848L119.415 46.856ZM101.847 46.856L101.287 46.0271L101.278 46.0338L101.847 46.856ZM95.991 54.152L95.0787 53.7424L95.0752 53.7502L95.0719 53.7581L95.991 54.152ZM95.991 75.848L95.0719 76.2419L95.0752 76.2498L95.0787 76.2576L95.991 75.848ZM98.967 86.888L98.4237 87.7276L98.4333 87.7337L98.4429 87.7397L98.967 86.888ZM91.287 78.152L90.3895 78.5931L90.3926 78.5992L91.287 78.152ZM91.287 51.944L92.1814 52.3912L92.1844 52.3851L91.287 51.944ZM98.967 43.208L99.4985 44.0551L99.5028 44.0523L98.967 43.208ZM122.295 43.208L121.752 44.0476L121.761 44.0537L121.771 44.0597L122.295 43.208ZM130.071 51.944L129.174 52.3851L129.177 52.3912L130.071 51.944ZM130.071 78.152L130.965 78.5992L130.968 78.5931L130.071 78.152ZM122.295 86.888L122.826 87.7351L122.831 87.7323L122.295 86.888ZM110.679 86.736C114.19 86.736 117.305 85.8211 119.984 83.9662L118.846 82.3218C116.533 83.9229 113.824 84.736 110.679 84.736V86.736ZM119.974 83.9728C122.71 82.1263 124.779 79.5353 126.19 76.2419L124.352 75.4541C123.075 78.4327 121.24 80.7057 118.856 82.3152L119.974 83.9728ZM126.183 76.2576C127.659 72.9705 128.383 69.2106 128.383 65H126.383C126.383 68.9814 125.699 72.4535 124.359 75.4384L126.183 76.2576ZM128.383 65C128.383 60.7894 127.659 57.0295 126.183 53.7424L124.359 54.5616C125.699 57.5465 126.383 61.0186 126.383 65H128.383ZM126.19 53.7581C124.779 50.4647 122.71 47.8737 119.974 46.0271L118.856 47.6848C121.24 49.2943 123.075 51.5673 124.352 54.5459L126.19 53.7581ZM119.984 46.0338C117.305 44.1789 114.19 43.264 110.679 43.264V45.264C113.824 45.264 116.533 46.0771 118.846 47.6782L119.984 46.0338ZM110.679 43.264C107.168 43.264 104.026 44.1789 101.288 46.0272L102.406 47.6848C104.788 46.0771 107.534 45.264 110.679 45.264V43.264ZM101.278 46.0338C98.6129 47.8787 96.5513 50.4627 95.0787 53.7424L96.9033 54.5616C98.2467 51.5693 100.089 49.2893 102.416 47.6782L101.278 46.0338ZM95.0719 53.7581C93.6649 57.0409 92.975 60.7952 92.975 65H94.975C94.975 61.0128 95.6291 57.5351 96.9101 54.5459L95.0719 53.7581ZM92.975 65C92.975 69.2048 93.6649 72.9591 95.0719 76.2419L96.9101 75.4541C95.6291 72.4649 94.975 68.9872 94.975 65H92.975ZM95.0787 76.2576C96.5513 79.5373 98.6129 82.1213 101.278 83.9662L102.416 82.3218C100.089 80.7107 98.2467 78.4307 96.9033 75.4384L95.0787 76.2576ZM101.278 83.9662C103.96 85.8234 107.108 86.736 110.679 86.736V84.736C107.466 84.736 104.726 83.9206 102.416 82.3218L101.278 83.9662ZM110.679 88.96C106.356 88.96 102.639 87.9738 99.4911 86.0363L98.4429 87.7397C101.951 89.8982 106.042 90.96 110.679 90.96V88.96ZM99.5103 86.0484C96.4064 84.0401 93.9631 81.2682 92.1814 77.7048L90.3926 78.5992C92.3229 82.4598 94.9996 85.5119 98.4237 87.7276L99.5103 86.0484ZM92.1844 77.7109C90.4074 74.0955 89.503 69.8673 89.503 65H87.503C87.503 70.1167 88.4546 74.6565 90.3896 78.5931L92.1844 77.7109ZM89.503 65C89.503 60.1321 90.4076 55.939 92.1814 52.3912L90.3926 51.4968C88.4544 55.373 87.503 59.8839 87.503 65H89.503ZM92.1844 52.3851C93.9663 48.7599 96.4061 45.9954 99.4985 44.0551L98.4355 42.3609C94.9999 44.5166 92.3197 47.5761 90.3896 51.5029L92.1844 52.3851ZM99.5028 44.0523C102.65 42.0554 106.362 41.04 110.679 41.04V39.04C106.036 39.04 101.94 40.1366 98.4312 42.3637L99.5028 44.0523ZM110.679 41.04C114.996 41.04 118.673 42.0555 121.752 44.0476L122.838 42.3684C119.389 40.1365 115.322 39.04 110.679 39.04V41.04ZM121.771 44.0597C124.926 46.0012 127.394 48.7649 129.174 52.3851L130.968 51.5029C129.036 47.5711 126.32 44.5108 122.819 42.3563L121.771 44.0597ZM129.177 52.3912C130.95 55.939 131.855 60.1321 131.855 65H133.855C133.855 59.8839 132.904 55.373 130.965 51.4968L129.177 52.3912ZM131.855 65C131.855 69.8673 130.951 74.0955 129.174 77.7109L130.968 78.5931C132.903 74.6565 133.855 70.1167 133.855 65H131.855ZM129.177 77.7048C127.397 81.2633 124.926 84.0342 121.759 86.0437L122.831 87.7323C126.32 85.5178 129.033 82.4647 130.965 78.5992L129.177 77.7048ZM121.764 86.0409C118.683 87.9737 115.002 88.96 110.679 88.96V90.96C115.316 90.96 119.379 89.8983 122.826 87.7351L121.764 86.0409ZM177.718 83.144L177.118 83.944L177.126 83.9499L177.718 83.144ZM176.182 103.496L175.63 102.662L175.621 102.668L176.182 103.496ZM143.734 103.976L144.279 103.138L144.279 103.138L143.734 103.976ZM146.326 81.896L146.824 82.763L148.096 82.0318L146.95 81.1151L146.326 81.896ZM148.63 67.88L149.289 68.6316L150.167 67.8617L149.271 67.1129L148.63 67.88ZM147.958 44.456L148.642 45.1855L148.642 45.1851L147.958 44.456ZM171.094 43.304L170.491 44.1019L170.813 44.3454L171.214 44.2967L171.094 43.304ZM181.366 42.056L181.303 41.0579L181.274 41.0598L181.245 41.0633L181.366 42.056ZM182.518 45.416L183.483 45.6791L183.484 45.6737L182.518 45.416ZM182.23 46.472V47.472H182.994L183.195 46.7351L182.23 46.472ZM174.262 46.472V45.472H172.341L173.443 47.0455L174.262 46.472ZM176.374 50.792L175.421 51.0968L175.425 51.1082L176.374 50.792ZM172.438 67.4L173.122 68.1295L173.122 68.1291L172.438 67.4ZM151.51 69.8L151.957 68.9056L151.35 68.6021L150.844 69.0541L151.51 69.8ZM149.59 83.624L149.815 82.6496L149.4 82.554L149.044 82.7861L149.59 83.624ZM147.67 100.712L148.203 99.8661L148.196 99.8619L148.19 99.8578L147.67 100.712ZM172.342 100.424L171.815 99.5741L171.809 99.5779L171.803 99.5817L172.342 100.424ZM173.974 86.216L173.386 87.0247L173.394 87.0306L173.402 87.0364L173.974 86.216ZM151.51 47.336L150.813 46.6184L150.813 46.6184L151.51 47.336ZM151.51 64.424L152.206 63.7064L151.51 64.424ZM168.982 64.424L168.285 63.7064L168.285 63.7064L168.982 64.424ZM154.198 80.688H165.142V78.688H154.198V80.688ZM165.142 80.688C170.319 80.688 174.274 81.8113 177.118 83.944L178.318 82.344C175.017 79.8687 170.589 78.688 165.142 78.688V80.688ZM177.126 83.9499C180.004 86.0647 181.422 88.869 181.422 92.456H183.422C183.422 88.235 181.703 84.8313 178.31 82.3381L177.126 83.9499ZM181.422 92.456C181.422 96.6968 179.537 100.077 175.63 102.662L176.733 104.33C181.146 101.411 183.422 97.4312 183.422 92.456H181.422ZM175.621 102.668C171.678 105.337 166.359 106.72 159.574 106.72V108.72C166.613 108.72 172.365 107.287 176.742 104.324L175.621 102.668ZM159.574 106.72C152.962 106.72 147.897 105.49 144.279 103.138L143.189 104.814C147.25 107.454 152.746 108.72 159.574 108.72V106.72ZM144.279 103.138C140.705 100.814 138.974 97.6968 138.974 93.704H136.974C136.974 98.4152 139.083 102.146 143.189 104.814L144.279 103.138ZM138.974 93.704C138.974 89.519 141.435 85.8599 146.824 82.763L145.827 81.029C140.08 84.3321 136.974 88.545 136.974 93.704H138.974ZM146.95 81.1151C145.612 80.0442 144.926 78.5846 144.926 76.616H142.926C142.926 79.1274 143.84 81.1878 145.701 82.6769L146.95 81.1151ZM144.926 76.616C144.926 73.9247 146.288 71.265 149.289 68.6316L147.97 67.1284C144.699 69.999 142.926 73.1633 142.926 76.616H144.926ZM149.271 67.1129C146.003 64.3798 144.35 60.674 144.35 55.88H142.35C142.35 61.198 144.216 65.4922 147.988 68.6471L149.271 67.1129ZM144.35 55.88C144.35 51.3824 145.797 47.852 148.642 45.1855L147.274 43.7265C143.974 46.82 142.35 50.9056 142.35 55.88H144.35ZM148.642 45.1851C151.561 42.4452 155.396 41.04 160.246 41.04V39.04C154.983 39.04 150.627 40.5788 147.273 43.7269L148.642 45.1851ZM160.246 41.04C164.426 41.04 167.818 42.0823 170.491 44.1019L171.697 42.5061C168.61 40.1737 164.769 39.04 160.246 39.04V41.04ZM171.214 44.2967L181.486 43.0487L181.245 41.0633L170.973 42.3113L171.214 44.2967ZM181.428 43.0541C181.809 43.0303 181.883 43.1172 181.859 43.0966C181.82 43.0626 181.902 43.0858 181.902 43.4H183.902C183.902 42.7542 183.727 42.0734 183.176 41.5914C182.641 41.1228 181.947 41.0177 181.303 41.0579L181.428 43.0541ZM181.902 43.4C181.902 43.6364 181.81 44.1905 181.552 45.1583L183.484 45.6737C183.738 44.7215 183.902 43.9316 183.902 43.4H181.902ZM181.553 45.1529L181.265 46.2089L183.195 46.7351L183.483 45.6791L181.553 45.1529ZM182.23 45.472H174.262V47.472H182.23V45.472ZM173.443 47.0455C174.277 48.2371 174.938 49.5853 175.421 51.0968L177.326 50.4872C176.786 48.7987 176.039 47.2669 175.081 45.8985L173.443 47.0455ZM175.425 51.1082C175.899 52.5286 176.142 54.116 176.142 55.88H178.142C178.142 53.932 177.873 52.1274 177.322 50.4758L175.425 51.1082ZM176.142 55.88C176.142 60.3708 174.666 63.9361 171.753 66.6709L173.122 68.1291C176.481 64.9759 178.142 60.8612 178.142 55.88H176.142ZM171.754 66.6705C168.903 69.343 165.102 70.72 160.246 70.72V72.72C165.502 72.72 169.828 71.217 173.122 68.1295L171.754 66.6705ZM160.246 70.72C157.115 70.72 154.36 70.107 151.957 68.9056L151.063 70.6944C153.78 72.053 156.848 72.72 160.246 72.72V70.72ZM150.844 69.0541C148.864 70.8217 147.822 72.9716 147.822 75.464H149.822C149.822 73.6044 150.572 71.9783 152.176 70.5459L150.844 69.0541ZM147.822 75.464C147.822 77.099 148.354 78.4803 149.548 79.4183C150.696 80.3202 152.302 80.688 154.198 80.688V78.688C152.509 78.688 151.428 78.3518 150.784 77.8457C150.185 77.3757 149.822 76.645 149.822 75.464H147.822ZM165.142 82.912H152.182V84.912H165.142V82.912ZM152.182 82.912C151.358 82.912 150.569 82.8238 149.815 82.6496L149.365 84.5984C150.274 84.8082 151.214 84.912 152.182 84.912V82.912ZM149.044 82.7861C144.642 85.6539 142.254 89.1927 142.254 93.416H144.254C144.254 90.0873 146.089 87.0981 150.136 84.4619L149.044 82.7861ZM142.254 93.416C142.254 96.8849 143.951 99.6191 147.15 101.566L148.19 99.8578C145.5 98.2209 144.254 96.0911 144.254 93.416H142.254ZM147.136 101.558C150.295 103.549 154.471 104.496 159.574 104.496V102.496C154.693 102.496 150.932 101.587 148.203 99.8661L147.136 101.558ZM159.574 104.496C165.004 104.496 169.468 103.451 172.881 101.266L171.803 99.5817C168.816 101.493 164.768 102.496 159.574 102.496V104.496ZM172.869 101.274C176.317 99.136 178.142 96.1808 178.142 92.456H176.142C176.142 95.3872 174.767 97.744 171.815 99.5741L172.869 101.274ZM178.142 92.456C178.142 89.4581 176.94 87.0642 174.546 85.3956L173.402 87.0364C175.232 88.3118 176.142 90.0779 176.142 92.456H178.142ZM174.562 85.4073C172.218 83.7026 169.039 82.912 165.142 82.912V84.912C168.797 84.912 171.505 85.6574 173.386 87.0247L174.562 85.4073ZM173.246 55.88C173.246 52.0787 172.083 48.9528 169.678 46.6184L168.285 48.0536C170.232 49.9432 171.246 52.5132 171.246 55.88H173.246ZM169.678 46.6184C167.279 44.2896 164.098 43.168 160.246 43.168V45.168C163.69 45.168 166.333 46.1584 168.285 48.0536L169.678 46.6184ZM160.246 43.168C156.394 43.168 153.213 44.2896 150.813 46.6184L152.206 48.0536C154.159 46.1584 156.802 45.168 160.246 45.168V43.168ZM150.813 46.6184C148.408 48.9528 147.246 52.0787 147.246 55.88H149.246C149.246 52.5132 150.259 49.9432 152.206 48.0536L150.813 46.6184ZM147.246 55.88C147.246 59.6812 148.408 62.8072 150.813 65.1416L152.206 63.7064C150.259 61.8168 149.246 59.2468 149.246 55.88H147.246ZM150.813 65.1416C153.213 67.4704 156.394 68.592 160.246 68.592V66.592C156.802 66.592 154.159 65.6016 152.206 63.7064L150.813 65.1416ZM160.246 68.592C164.098 68.592 167.279 67.4704 169.678 65.1416L168.285 63.7064C166.333 65.6016 163.69 66.592 160.246 66.592V68.592ZM169.678 65.1416C172.083 62.8072 173.246 59.6812 173.246 55.88H171.246C171.246 59.2468 170.232 61.8168 168.285 63.7064L169.678 65.1416ZM189.7 83.912L188.7 83.9303L188.704 84.1442L188.795 84.3378L189.7 83.912ZM189.508 73.448L189.114 72.5289L188.496 72.7938L188.508 73.4663L189.508 73.448ZM192.772 73.736L193.752 73.5362L193.669 73.1325L193.326 72.9039L192.772 73.736ZM194.788 83.624L193.808 83.8238L193.91 84.3262L194.378 84.5363L194.788 83.624ZM215.812 70.664L215.132 71.3978L215.139 71.4039L215.146 71.4099L215.812 70.664ZM207.556 66.632L207.833 65.6711L207.829 65.6699L207.556 66.632ZM197.38 62.888L196.906 63.7685L196.914 63.7732L196.923 63.7778L197.38 62.888ZM192.004 58.376L191.143 58.8858L191.155 58.9048L191.167 58.9232L192.004 58.376ZM194.788 43.304L194.193 42.4998L194.185 42.5061L194.788 43.304ZM213.892 40.712L213.711 41.6955L213.715 41.6963L213.892 40.712ZM219.46 42.44L220.223 41.7941L220.111 41.6615L219.961 41.5746L219.46 42.44ZM221.284 45.32L222.284 45.2998L222.279 45.0869L222.189 44.8942L221.284 45.32ZM221.476 54.824L221.827 55.7603L222.49 55.5117L222.476 54.8038L221.476 54.824ZM218.212 54.536L217.237 54.7585L217.326 55.147L217.657 55.368L218.212 54.536ZM216.196 45.704L217.171 45.4815L217.051 44.9551L216.544 44.7668L216.196 45.704ZM196.708 56.072L195.868 56.6152L195.887 56.6443L195.908 56.672L196.708 56.072ZM208.324 61.832L208.024 62.7861L208.031 62.7883L208.038 62.7904L208.324 61.832ZM220.036 67.784L219.338 68.5005L219.348 68.5098L219.357 68.5188L220.036 67.784ZM218.98 86.408L219.575 87.2119L219.585 87.2042L218.98 86.408ZM197.764 89.096L197.539 90.0704L197.544 90.0716L197.764 89.096ZM191.524 86.792L190.76 87.4379L190.873 87.5711L191.024 87.6582L191.524 86.792ZM190.7 83.8937L190.508 73.4297L188.508 73.4663L188.7 83.9303L190.7 83.8937ZM189.902 74.3671C190.219 74.2312 190.564 74.16 190.948 74.16V72.16C190.307 72.16 189.693 72.2808 189.114 72.5289L189.902 74.3671ZM190.948 74.16C191.374 74.16 191.791 74.2842 192.217 74.568L193.326 72.9039C192.6 72.4198 191.801 72.16 190.948 72.16V74.16ZM191.792 73.9358L193.808 83.8238L195.768 83.4242L193.752 73.5362L191.792 73.9358ZM194.378 84.5363C197.665 86.0121 201.425 86.736 205.636 86.736V84.736C201.654 84.736 198.182 84.0519 195.197 82.7117L194.378 84.5363ZM205.636 86.736C209.733 86.736 213.099 85.8779 215.629 84.0507L214.458 82.4293C212.38 83.9301 209.475 84.736 205.636 84.736V86.736ZM215.629 84.0507C218.191 82.2007 219.5 79.6606 219.5 76.52H217.5C217.5 79.0114 216.505 80.9513 214.458 82.4293L215.629 84.0507ZM219.5 76.52C219.5 73.9176 218.472 71.6986 216.478 69.9181L215.146 71.4099C216.736 72.8294 217.5 74.5144 217.5 76.52H219.5ZM216.491 69.9302C214.596 68.1757 211.671 66.777 207.833 65.6711L207.279 67.5929C210.993 68.663 213.571 69.9523 215.132 71.3978L216.491 69.9302ZM207.829 65.6699C203.572 64.4627 200.25 63.2359 197.836 61.9982L196.923 63.7778C199.502 65.1001 202.964 66.3693 207.283 67.5941L207.829 65.6699ZM197.854 62.0075C195.446 60.711 193.807 59.3063 192.841 57.8287L191.167 58.9232C192.377 60.7737 194.322 62.377 196.906 63.7685L197.854 62.0075ZM192.864 57.8662C191.947 56.3182 191.468 54.453 191.468 52.232H189.468C189.468 54.747 190.013 56.9778 191.143 58.8858L192.864 57.8662ZM191.468 52.232C191.468 48.7526 192.774 46.0789 195.391 44.1019L194.185 42.5061C191.042 44.8811 189.468 48.1594 189.468 52.232H191.468ZM195.382 44.1082C198.099 42.0998 201.866 41.04 206.788 41.04V39.04C201.598 39.04 197.364 40.1562 194.193 42.4998L195.382 44.1082ZM206.788 41.04C209.027 41.04 211.334 41.2577 213.711 41.6955L214.073 39.7285C211.585 39.2703 209.157 39.04 206.788 39.04V41.04ZM213.715 41.6963C216.173 42.1375 217.894 42.6888 218.959 43.3054L219.961 41.5746C218.594 40.7832 216.602 40.1825 214.068 39.7277L213.715 41.6963ZM218.696 43.0859C219.338 43.8446 219.9 44.729 220.379 45.7458L222.189 44.8942C221.643 43.735 220.989 42.6994 220.223 41.7941L218.696 43.0859ZM220.284 45.3402L220.476 54.8442L222.476 54.8038L222.284 45.2998L220.284 45.3402ZM221.125 53.8877C220.701 54.0466 220.341 54.112 220.036 54.112V56.112C220.627 56.112 221.227 55.9854 221.827 55.7603L221.125 53.8877ZM220.036 54.112C219.609 54.112 219.192 53.9878 218.766 53.7039L217.657 55.368C218.383 55.8522 219.182 56.112 220.036 56.112V54.112ZM219.187 54.3135L217.171 45.4815L215.221 45.9265L217.237 54.7585L219.187 54.3135ZM216.544 44.7668C213.667 43.6961 210.507 43.168 207.076 43.168V45.168C210.3 45.168 213.22 45.6639 215.847 46.6412L216.544 44.7668ZM207.076 43.168C203.181 43.168 200.08 43.8499 197.931 45.367C195.718 46.9292 194.652 49.2764 194.652 52.232H196.652C196.652 49.8116 197.49 48.1268 199.084 47.001C200.743 45.8301 203.355 45.168 207.076 45.168V43.168ZM194.652 52.232C194.652 53.8698 195.046 55.3442 195.868 56.6152L197.547 55.5287C196.962 54.6238 196.652 53.5382 196.652 52.232H194.652ZM195.908 56.672C196.813 57.879 198.287 58.9249 200.209 59.8525L201.079 58.0514C199.288 57.1871 198.138 56.313 197.508 55.472L195.908 56.672ZM200.209 59.8525C202.128 60.7789 204.74 61.7557 208.024 62.7861L208.623 60.8779C205.38 59.8603 202.872 58.9171 201.079 58.0514L200.209 59.8525ZM208.038 62.7904C213.349 64.3709 217.074 66.2961 219.338 68.5005L220.733 67.0675C218.133 64.5359 214.051 62.4931 208.609 60.8735L208.038 62.7904ZM219.357 68.5188C221.64 70.6259 222.78 73.2676 222.78 76.52H224.78C224.78 72.7324 223.423 69.5501 220.714 67.0492L219.357 68.5188ZM222.78 76.52C222.78 80.3803 221.316 83.3766 218.375 85.6118L219.585 87.2042C223.044 84.5754 224.78 80.9797 224.78 76.52H222.78ZM218.385 85.6042C215.417 87.8003 211.207 88.96 205.636 88.96V90.96C211.457 90.96 216.142 89.7517 219.575 87.2118L218.385 85.6042ZM205.636 88.96C203.02 88.96 200.469 88.6798 197.983 88.1204L197.544 90.0716C200.178 90.6642 202.876 90.96 205.636 90.96V88.96ZM197.989 88.1216C195.559 87.5609 193.579 86.823 192.023 85.9258L191.024 87.6582C192.797 88.681 194.976 89.4791 197.539 90.0704L197.989 88.1216ZM192.287 86.1461C191.645 85.3874 191.083 84.503 190.605 83.4862L188.795 84.3378C189.34 85.497 189.994 86.5326 190.76 87.4379L192.287 86.1461ZM242.672 88.712L241.992 87.9792L241.978 87.9918L241.965 88.0049L242.672 88.712ZM235.664 88.712L234.957 89.4191L234.97 89.4322L234.984 89.4448L235.664 88.712ZM235.664 82.184L234.984 81.4512L234.97 81.4638L234.957 81.4769L235.664 82.184ZM242.672 82.184L241.965 82.8911L241.978 82.9042L241.992 82.9168L242.672 82.184ZM243.016 85.448C243.016 86.5446 242.663 87.3563 241.992 87.9792L243.353 89.4448C244.474 88.4037 245.016 87.0394 245.016 85.448H243.016ZM241.965 88.0049C241.365 88.6049 240.493 88.96 239.216 88.96V90.96C240.883 90.96 242.315 90.4831 243.379 89.4191L241.965 88.0049ZM239.216 88.96C237.942 88.96 237.019 88.6057 236.345 87.9792L234.984 89.4448C236.101 90.4823 237.546 90.96 239.216 90.96V88.96ZM236.371 88.0049C235.754 87.3876 235.416 86.5678 235.416 85.448H233.416C233.416 87.0162 233.91 88.3724 234.957 89.4191L236.371 88.0049ZM235.416 85.448C235.416 84.3282 235.754 83.5084 236.371 82.8911L234.957 81.4769C233.91 82.5236 233.416 83.8798 233.416 85.448H235.416ZM236.345 82.9168C237.019 82.2903 237.942 81.936 239.216 81.936V79.936C237.546 79.936 236.101 80.4137 234.984 81.4512L236.345 82.9168ZM239.216 81.936C240.493 81.936 241.365 82.2911 241.965 82.8911L243.379 81.4769C242.315 80.4129 240.883 79.936 239.216 79.936V81.936ZM241.992 82.9168C242.663 83.5397 243.016 84.3514 243.016 85.448H245.016C245.016 83.8566 244.474 82.4923 243.353 81.4512L241.992 82.9168Z" fill="black"/>
<path d="M94.2539 32.7188C94.3164 32.5625 94.375 32.3906 94.4297 32.2031C94.4922 32.0078 94.5469 31.8125 94.5938 31.6172C94.6484 31.4141 94.6914 31.2188 94.7227 31.0312C94.7539 30.8359 94.7695 30.6523 94.7695 30.4805V30.375C94.6445 30.3594 94.5195 30.3359 94.3945 30.3047C94.2773 30.2734 94.1758 30.2305 94.0898 30.1758C94.0039 30.1133 93.9297 30.0352 93.8672 29.9414C93.8125 29.8398 93.7852 29.7188 93.7852 29.5781C93.7852 29.4219 93.8086 29.2969 93.8555 29.2031C93.9023 29.1016 94.0195 29.0508 94.207 29.0508C94.3398 29.0508 94.4648 29.082 94.582 29.1445C94.707 29.1992 94.8242 29.2656 94.9336 29.3438L94.9922 29.2383L95.625 26.8359C95.6094 26.6328 95.6172 26.4297 95.6484 26.2266C95.6875 26.0156 95.7695 25.8359 95.8945 25.6875C95.8867 25.6875 95.8633 25.6875 95.8242 25.6875C95.7852 25.6797 95.7578 25.6758 95.7422 25.6758C95.6172 25.6758 95.4922 25.6953 95.3672 25.7344C95.2422 25.7656 95.1211 25.8086 95.0039 25.8633C94.8945 25.9102 94.7812 25.957 94.6641 26.0039C94.5469 26.043 94.4297 26.0742 94.3125 26.0977C94.2969 26.0977 94.2656 26.0898 94.2188 26.0742C94.1797 26.0586 94.1523 26.0391 94.1367 26.0156C94.1133 26.0234 94.0742 26.0352 94.0195 26.0508C93.9648 26.0664 93.9062 26.0781 93.8438 26.0859C93.7812 26.0938 93.7227 26.1055 93.668 26.1211C93.6133 26.1289 93.5781 26.1367 93.5625 26.1445H93.5039C93.3477 26.1445 93.2695 26.0664 93.2695 25.9102C93.2695 25.832 93.3203 25.7695 93.4219 25.7227C93.5234 25.6758 93.6445 25.6328 93.7852 25.5938C93.9258 25.5469 94.0664 25.5078 94.207 25.4766C94.3477 25.4375 94.4531 25.3945 94.5234 25.3477C94.7031 25.2852 94.8594 25.2383 94.9922 25.207C95.125 25.1758 95.2539 25.1523 95.3789 25.1367C95.5039 25.1211 95.625 25.1133 95.7422 25.1133C95.8672 25.1055 96.0117 25.1016 96.1758 25.1016C96.4883 25.1016 96.8008 25.1406 97.1133 25.2188C97.4336 25.2891 97.7188 25.4062 97.9688 25.5703C98.2266 25.7344 98.4336 25.9492 98.5898 26.2148C98.7539 26.4805 98.8359 26.7969 98.8359 27.1641C98.8359 27.5078 98.7539 27.8203 98.5898 28.1016C98.4336 28.375 98.2344 28.6211 97.9922 28.8398C97.7578 29.0586 97.5 29.2539 97.2188 29.4258C96.9453 29.5898 96.6875 29.7305 96.4453 29.8477C96.2109 29.957 96.0117 30.0469 95.8477 30.1172C95.6914 30.1797 95.6133 30.2148 95.6133 30.2227V30.2461C95.6133 30.2539 95.6172 30.2578 95.625 30.2578C95.7891 30.5625 95.957 30.8359 96.1289 31.0781C96.3086 31.3125 96.5039 31.5156 96.7148 31.6875C96.9336 31.8516 97.1797 31.9805 97.4531 32.0742C97.7266 32.1602 98.043 32.2031 98.4023 32.2031C98.5195 32.2031 98.6367 32.1875 98.7539 32.1562C98.8711 32.125 98.9844 32.0938 99.0938 32.0625C99.2109 32.0234 99.3242 31.9883 99.4336 31.957C99.543 31.9258 99.6562 31.9102 99.7734 31.9102C99.8203 31.9102 99.8711 31.9258 99.9258 31.957C99.9883 31.9805 100.02 32.0234 100.02 32.0859C100.02 32.2109 99.9297 32.3164 99.75 32.4023C99.5781 32.4883 99.3828 32.5586 99.1641 32.6133C98.9453 32.668 98.7305 32.707 98.5195 32.7305C98.3086 32.7539 98.1719 32.7656 98.1094 32.7656C97.5469 32.7656 97.0234 32.6367 96.5391 32.3789C96.0625 32.1211 95.6797 31.7383 95.3906 31.2305H95.332C95.3164 31.3242 95.293 31.4688 95.2617 31.6641C95.2383 31.8516 95.1953 32.043 95.1328 32.2383C95.0781 32.4258 95.0039 32.5938 94.9102 32.7422C94.8242 32.8828 94.7188 32.9531 94.5938 32.9531C94.5 32.9531 94.418 32.9414 94.3477 32.918C94.2852 32.8945 94.2539 32.8281 94.2539 32.7188ZM95.6836 29.5781H95.7422C95.7578 29.5703 95.7852 29.5586 95.8242 29.543C95.8711 29.5273 95.8945 29.5156 95.8945 29.5078C96.1523 29.3906 96.418 29.2617 96.6914 29.1211C96.9648 28.9727 97.2148 28.8008 97.4414 28.6055C97.668 28.4102 97.8516 28.1914 97.9922 27.9492C98.1406 27.6992 98.2148 27.4102 98.2148 27.082C98.2148 26.8711 98.1562 26.6797 98.0391 26.5078C97.9297 26.3359 97.7852 26.1914 97.6055 26.0742C97.4336 25.9492 97.2461 25.8555 97.043 25.793C96.8398 25.7227 96.6445 25.6875 96.457 25.6875H96.3047C96.3828 25.75 96.4219 25.8164 96.4219 25.8867C96.4297 25.957 96.4336 26.0352 96.4336 26.1211C96.4336 26.1445 96.4297 26.1836 96.4219 26.2383C96.4219 26.2852 96.4219 26.3086 96.4219 26.3086L95.6836 29.2852V29.5781ZM102.082 38.4844C102.074 38.4531 102.066 38.3945 102.059 38.3086C102.059 38.2305 102.059 38.1719 102.059 38.1328C102.059 37.9453 102.078 37.75 102.117 37.5469C102.164 37.3516 102.223 37.1523 102.293 36.9492C102.371 36.7539 102.453 36.5625 102.539 36.375C102.633 36.1953 102.73 36.0195 102.832 35.8477C103.012 35.5352 103.191 35.2344 103.371 34.9453C103.551 34.6562 103.738 34.375 103.934 34.1016C104.137 33.8281 104.348 33.5625 104.566 33.3047C104.785 33.0469 105.023 32.7891 105.281 32.5312C105.281 32.5234 105.281 32.5 105.281 32.4609C105.289 32.4219 105.293 32.3945 105.293 32.3789C105.293 32.2773 105.281 32.1602 105.258 32.0273C105.242 31.8945 105.211 31.7695 105.164 31.6523C105.125 31.5352 105.062 31.4336 104.977 31.3477C104.891 31.2617 104.785 31.2188 104.66 31.2188C104.473 31.2188 104.305 31.2461 104.156 31.3008C104.016 31.3477 103.883 31.418 103.758 31.5117C103.633 31.6055 103.512 31.7109 103.395 31.8281C103.285 31.9453 103.172 32.0703 103.055 32.2031C103 32.2266 102.949 32.2422 102.902 32.25C102.863 32.25 102.816 32.25 102.762 32.25C102.668 32.25 102.605 32.2227 102.574 32.168C102.551 32.1133 102.539 32.043 102.539 31.957V31.8516L103.629 29.6367C103.676 29.5352 103.703 29.4297 103.711 29.3203C103.727 29.2109 103.734 29.1055 103.734 29.0039C103.625 29.0039 103.496 29.0273 103.348 29.0742C103.207 29.1133 103.109 29.1836 103.055 29.2852L101.285 30.7148C101.23 30.7305 101.176 30.7578 101.121 30.7969C101.074 30.8281 101.027 30.8633 100.98 30.9023C100.941 30.9414 100.898 30.9766 100.852 31.0078C100.805 31.0391 100.754 31.0547 100.699 31.0547C100.645 31.0547 100.602 31.0352 100.57 30.9961C100.539 30.957 100.523 30.9102 100.523 30.8555C100.523 30.7461 100.555 30.6094 100.617 30.4453C100.688 30.2812 100.777 30.1641 100.887 30.0938C100.949 30.0391 101.062 29.9531 101.227 29.8359C101.398 29.7109 101.578 29.582 101.766 29.4492C101.953 29.3164 102.129 29.1914 102.293 29.0742C102.465 28.9492 102.586 28.8672 102.656 28.8281C102.812 28.7188 103.004 28.6055 103.23 28.4883C103.465 28.3711 103.691 28.3125 103.91 28.3125C104.074 28.3125 104.199 28.3828 104.285 28.5234C104.379 28.6641 104.426 28.8086 104.426 28.957C104.426 29.2617 104.367 29.5547 104.25 29.8359C104.141 30.1172 104.027 30.3906 103.91 30.6562H103.945H103.957C103.98 30.6562 104.023 30.6523 104.086 30.6445C104.156 30.6289 104.23 30.6172 104.309 30.6094C104.395 30.5938 104.469 30.5781 104.531 30.5625C104.602 30.5469 104.645 30.5391 104.66 30.5391H104.707C104.91 30.5391 105.078 30.582 105.211 30.668C105.352 30.7461 105.469 30.8477 105.562 30.9727C105.664 31.0977 105.742 31.2461 105.797 31.418C105.859 31.582 105.918 31.7461 105.973 31.9102C106.184 31.7305 106.355 31.5859 106.488 31.4766C106.621 31.3672 106.73 31.2812 106.816 31.2188C106.91 31.1484 106.992 31.0898 107.062 31.043C107.133 30.9883 107.215 30.9336 107.309 30.8789C107.41 30.8164 107.531 30.7383 107.672 30.6445C107.812 30.543 107.996 30.4062 108.223 30.2344C108.277 30.2031 108.348 30.168 108.434 30.1289C108.52 30.082 108.605 30.0586 108.691 30.0586C108.746 30.0586 108.793 30.0938 108.832 30.1641C108.879 30.2344 108.902 30.2969 108.902 30.3516C108.902 30.4375 108.867 30.5156 108.797 30.5859L107.426 31.5586L106.078 32.6484L106.031 32.7656C106.023 32.8516 106.012 33.0078 105.996 33.2344C105.98 33.4609 105.961 33.6992 105.938 33.9492C105.922 34.1992 105.902 34.4336 105.879 34.6523C105.863 34.8711 105.852 35.0273 105.844 35.1211C105.828 35.3633 105.777 35.625 105.691 35.9062C105.613 36.1875 105.512 36.4688 105.387 36.75C105.262 37.0312 105.109 37.3047 104.93 37.5703C104.758 37.8359 104.562 38.0703 104.344 38.2734C104.133 38.4766 103.898 38.6406 103.641 38.7656C103.383 38.8906 103.109 38.9531 102.82 38.9531C102.648 38.9531 102.496 38.918 102.363 38.8477C102.23 38.7852 102.137 38.6641 102.082 38.4844ZM104.93 33.8555C104.891 33.9102 104.824 33.9961 104.73 34.1133C104.645 34.2305 104.555 34.3477 104.461 34.4648C104.375 34.582 104.293 34.6914 104.215 34.793C104.145 34.9023 104.098 34.9688 104.074 34.9922C103.918 35.2578 103.754 35.5234 103.582 35.7891C103.418 36.0547 103.27 36.3281 103.137 36.6094C103.004 36.8906 102.895 37.1758 102.809 37.4648C102.723 37.7617 102.68 38.0703 102.68 38.3906C103.055 38.3906 103.371 38.2656 103.629 38.0156C104.246 37.4453 104.676 36.8047 104.918 36.0938C105.168 35.3828 105.293 34.6016 105.293 33.75C105.293 33.7266 105.289 33.6836 105.281 33.6211C105.281 33.5664 105.281 33.5273 105.281 33.5039L104.93 33.8555ZM110.812 30.3633C110.797 30.332 110.77 30.2891 110.73 30.2344C110.699 30.1719 110.66 30.1406 110.613 30.1406C110.465 30.1406 110.312 30.207 110.156 30.3398C110.008 30.4648 109.863 30.6172 109.723 30.7969C109.59 30.9688 109.473 31.1445 109.371 31.3242C109.277 31.5039 109.219 31.6445 109.195 31.7461C109.164 31.8477 109.148 31.9688 109.148 32.1094C109.148 32.25 109.137 32.3828 109.113 32.5078C109.098 32.6328 109.055 32.7383 108.984 32.8242C108.922 32.9102 108.809 32.9531 108.645 32.9531C108.543 32.9531 108.473 32.9336 108.434 32.8945C108.402 32.8477 108.387 32.7734 108.387 32.6719C108.441 32.2969 108.488 31.9883 108.527 31.7461C108.574 31.5039 108.613 31.293 108.645 31.1133C108.684 30.9258 108.719 30.7461 108.75 30.5742C108.789 30.3945 108.832 30.1797 108.879 29.9297C108.926 29.6797 108.977 29.375 109.031 29.0156C109.086 28.6484 109.152 28.1836 109.23 27.6211C109.23 27.5039 109.238 27.3398 109.254 27.1289C109.27 26.9102 109.297 26.6797 109.336 26.4375C109.383 26.1875 109.441 25.9375 109.512 25.6875C109.582 25.4297 109.668 25.1992 109.77 24.9961C109.879 24.793 110.004 24.6289 110.145 24.5039C110.285 24.3711 110.449 24.3047 110.637 24.3047C110.77 24.3047 110.875 24.3516 110.953 24.4453C111.039 24.5312 111.102 24.6367 111.141 24.7617C111.188 24.8867 111.215 25.0195 111.223 25.1602C111.23 25.293 111.234 25.4023 111.234 25.4883C111.234 25.6836 111.219 25.8711 111.188 26.0508C111.156 26.2227 111.117 26.3984 111.07 26.5781C111.023 26.75 110.973 26.9258 110.918 27.1055C110.863 27.2773 110.816 27.4492 110.777 27.6211L110.027 29.0508L109.605 29.9648L109.664 30.0938C109.828 29.8984 109.996 29.75 110.168 29.6484C110.34 29.5391 110.555 29.4766 110.812 29.4609C110.93 29.4531 111.027 29.4883 111.105 29.5664C111.191 29.6445 111.262 29.7461 111.316 29.8711C111.371 29.9883 111.41 30.1094 111.434 30.2344C111.465 30.3594 111.484 30.4609 111.492 30.5391C111.492 30.5859 111.488 30.6602 111.48 30.7617C111.473 30.8633 111.465 30.9805 111.457 31.1133C111.449 31.2461 111.441 31.3867 111.434 31.5352C111.434 31.6758 111.441 31.8086 111.457 31.9336C111.473 32.0586 111.504 32.168 111.551 32.2617C111.605 32.3477 111.676 32.3984 111.762 32.4141C112.066 32.375 112.336 32.3242 112.57 32.2617C112.812 32.1914 113.023 32.0977 113.203 31.9805C113.383 31.8555 113.531 31.6992 113.648 31.5117C113.773 31.3242 113.867 31.0938 113.93 30.8203C113.984 30.7422 114.062 30.7031 114.164 30.7031C114.281 30.7031 114.355 30.7461 114.387 30.832C114.426 30.918 114.445 31.0117 114.445 31.1133C114.445 31.4258 114.344 31.7031 114.141 31.9453C113.945 32.1797 113.695 32.375 113.391 32.5312C113.086 32.6875 112.758 32.8086 112.406 32.8945C112.055 32.9727 111.73 33.0117 111.434 33.0117C111.246 33.0117 111.117 32.9492 111.047 32.8242C110.977 32.6914 110.934 32.5352 110.918 32.3555C110.91 32.168 110.91 31.9805 110.918 31.793C110.926 31.6055 110.926 31.4531 110.918 31.3359C110.918 31.2969 110.914 31.2344 110.906 31.1484C110.898 31.0547 110.887 30.957 110.871 30.8555C110.863 30.7539 110.852 30.6562 110.836 30.5625C110.82 30.4688 110.812 30.4023 110.812 30.3633ZM109.852 27.5508C109.852 27.5742 109.852 27.6133 109.852 27.668C109.852 27.7227 109.852 27.7734 109.852 27.8203C109.859 27.8672 109.863 27.9102 109.863 27.9492C109.863 27.9883 109.863 28.0117 109.863 28.0195L109.922 28.0781C110 28.0312 110.07 27.9492 110.133 27.832C110.203 27.7148 110.266 27.5742 110.32 27.4102C110.375 27.2461 110.422 27.0742 110.461 26.8945C110.508 26.707 110.547 26.5234 110.578 26.3438C110.609 26.1641 110.633 26 110.648 25.8516C110.672 25.7031 110.684 25.582 110.684 25.4883C110.684 25.457 110.68 25.3984 110.672 25.3125C110.672 25.2266 110.668 25.1758 110.66 25.1602L110.602 25.043C110.414 25.1914 110.27 25.3672 110.168 25.5703C110.066 25.7734 109.992 25.9844 109.945 26.2031C109.898 26.4219 109.871 26.6484 109.863 26.8828C109.855 27.1172 109.852 27.3398 109.852 27.5508ZM114.223 31.1719C114.238 31.125 114.262 31.043 114.293 30.9258C114.332 30.8008 114.367 30.668 114.398 30.5273C114.438 30.3867 114.469 30.2539 114.492 30.1289C114.523 29.9961 114.547 29.9062 114.562 29.8594C114.609 29.6719 114.664 29.4688 114.727 29.25C114.797 29.0312 114.891 28.8281 115.008 28.6406C115.125 28.4531 115.273 28.3008 115.453 28.1836C115.641 28.0586 115.871 27.9961 116.145 27.9961C116.246 27.9961 116.316 28.0352 116.355 28.1133C116.402 28.1836 116.441 28.2617 116.473 28.3477C116.473 28.3789 116.473 28.4375 116.473 28.5234C116.48 28.6016 116.484 28.6562 116.484 28.6875C116.484 29.0234 116.449 29.3203 116.379 29.5781C116.316 29.8359 116.215 30.0742 116.074 30.293C115.941 30.5117 115.777 30.7188 115.582 30.9141C115.387 31.1016 115.164 31.3008 114.914 31.5117C114.906 31.5352 114.895 31.5742 114.879 31.6289C114.863 31.6836 114.855 31.7227 114.855 31.7461V31.7695C114.855 31.9102 114.879 32.0234 114.926 32.1094C114.973 32.1953 115.035 32.2656 115.113 32.3203C115.199 32.3672 115.293 32.3984 115.395 32.4141C115.504 32.4219 115.621 32.4258 115.746 32.4258C116.113 32.4258 116.465 32.375 116.801 32.2734C117.137 32.1719 117.445 32.0078 117.727 31.7812C117.766 31.7422 117.812 31.6875 117.867 31.6172C117.93 31.5391 117.992 31.4609 118.055 31.3828C118.117 31.3047 118.184 31.2383 118.254 31.1836C118.324 31.1211 118.398 31.0898 118.477 31.0898C118.555 31.0898 118.602 31.1211 118.617 31.1836C118.633 31.2461 118.641 31.3086 118.641 31.3711C118.641 31.543 118.586 31.707 118.477 31.8633C118.375 32.0117 118.238 32.1484 118.066 32.2734C117.902 32.3906 117.711 32.4961 117.492 32.5898C117.281 32.6836 117.07 32.7617 116.859 32.8242C116.648 32.8867 116.445 32.9336 116.25 32.9648C116.062 32.9961 115.902 33.0117 115.77 33.0117C115.355 33.0117 115.008 32.9453 114.727 32.8125C114.453 32.6719 114.266 32.3945 114.164 31.9805L114.223 31.1719ZM115.898 28.8633C115.742 29.0039 115.617 29.1328 115.523 29.25C115.438 29.3594 115.367 29.4766 115.312 29.6016C115.266 29.7188 115.223 29.8477 115.184 29.9883C115.152 30.1289 115.117 30.293 115.078 30.4805C115.227 30.3633 115.348 30.2461 115.441 30.1289C115.543 30.0117 115.625 29.8906 115.688 29.7656C115.75 29.6406 115.797 29.5078 115.828 29.3672C115.859 29.2188 115.883 29.0508 115.898 28.8633ZM118.477 32.7656L118.875 30.4219V30.0938L119.109 28.5352C119.133 28.5039 119.176 28.4883 119.238 28.4883C119.301 28.4805 119.344 28.4766 119.367 28.4766C119.43 28.4766 119.5 28.5 119.578 28.5469C119.664 28.5859 119.707 28.6406 119.707 28.7109V29.5078C119.738 29.4844 119.793 29.4375 119.871 29.3672C119.949 29.2969 120.031 29.2227 120.117 29.1445C120.211 29.0664 120.297 28.9922 120.375 28.9219C120.453 28.8516 120.504 28.8008 120.527 28.7695C120.613 28.6914 120.715 28.625 120.832 28.5703C120.957 28.5156 121.074 28.4883 121.184 28.4883C121.41 28.4883 121.586 28.5586 121.711 28.6992C121.844 28.8398 121.91 29.0195 121.91 29.2383C121.91 29.2539 121.906 29.2656 121.898 29.2734C121.898 29.2734 121.898 29.2812 121.898 29.2969V29.3438L121.453 31.3477V32.2969C121.695 32.2969 121.945 32.25 122.203 32.1562C122.469 32.0547 122.723 31.9297 122.965 31.7812C123.207 31.6328 123.434 31.4648 123.645 31.2773C123.855 31.082 124.039 30.8945 124.195 30.7148H124.242C124.297 30.7148 124.34 30.7344 124.371 30.7734C124.41 30.8047 124.43 30.8477 124.43 30.9023C124.43 31.0742 124.371 31.2461 124.254 31.418C124.145 31.582 124 31.7383 123.82 31.8867C123.648 32.0352 123.445 32.1758 123.211 32.3086C122.984 32.4414 122.758 32.5547 122.531 32.6484C122.312 32.7422 122.098 32.8164 121.887 32.8711C121.676 32.9258 121.496 32.9531 121.348 32.9531C121.199 32.9531 121.082 32.9258 120.996 32.8711C120.91 32.8164 120.844 32.7461 120.797 32.6602C120.758 32.5664 120.73 32.4648 120.715 32.3555C120.707 32.2461 120.703 32.1289 120.703 32.0039V31.8516L121.16 29.5781V29.1914C120.973 29.1914 120.785 29.2734 120.598 29.4375C120.418 29.6016 120.254 29.8008 120.105 30.0352C119.965 30.2695 119.84 30.5078 119.73 30.75C119.629 30.9922 119.555 31.1914 119.508 31.3477C119.492 31.4023 119.469 31.5 119.438 31.6406C119.406 31.7812 119.375 31.9297 119.344 32.0859C119.32 32.2422 119.297 32.3906 119.273 32.5312C119.25 32.6719 119.234 32.7734 119.227 32.8359C119.234 32.8828 119.219 32.918 119.18 32.9414C119.148 32.9648 119.109 32.9844 119.062 33C119.016 33.0078 118.965 33.0117 118.91 33.0117C118.863 33.0117 118.824 33.0117 118.793 33.0117C118.723 33.0117 118.652 33 118.582 32.9766C118.512 32.9531 118.477 32.8945 118.477 32.8008V32.7656ZM124.805 38.7188C124.766 38.6016 124.73 38.4922 124.699 38.3906C124.676 38.2891 124.66 38.1914 124.652 38.0977C124.645 38.0117 124.637 37.9219 124.629 37.8281C124.629 37.7422 124.629 37.6367 124.629 37.5117C124.629 37.4961 124.629 37.4648 124.629 37.418C124.629 37.3789 124.629 37.332 124.629 37.2773C124.629 37.2305 124.629 37.1836 124.629 37.1367C124.637 37.0977 124.641 37.0703 124.641 37.0547C124.727 36.6719 124.82 36.293 124.922 35.918C125.031 35.5508 125.16 35.1914 125.309 34.8398C125.457 34.4961 125.637 34.168 125.848 33.8555C126.059 33.5508 126.32 33.2656 126.633 33C126.641 32.9609 126.652 32.8828 126.668 32.7656C126.684 32.6484 126.703 32.5273 126.727 32.4023C126.75 32.2773 126.766 32.1602 126.773 32.0508C126.789 31.9336 126.801 31.8477 126.809 31.793C126.809 31.7773 126.805 31.7422 126.797 31.6875C126.797 31.625 126.797 31.5859 126.797 31.5703H126.762C126.488 31.7109 126.227 31.8359 125.977 31.9453C125.727 32.0469 125.453 32.0977 125.156 32.0977C124.992 32.0977 124.852 32.0703 124.734 32.0156C124.625 31.9609 124.535 31.8867 124.465 31.793C124.395 31.6992 124.34 31.5898 124.301 31.4648C124.27 31.3398 124.25 31.2031 124.242 31.0547L124.523 30.1992C124.594 30.0039 124.68 29.7969 124.781 29.5781C124.891 29.3516 125.012 29.1367 125.145 28.9336C125.285 28.7305 125.445 28.5469 125.625 28.3828C125.805 28.2109 126.008 28.0898 126.234 28.0195C126.539 27.9727 126.82 27.9805 127.078 28.043C127.344 28.1055 127.574 28.1953 127.77 28.3125C127.965 28.4297 128.121 28.5586 128.238 28.6992C128.363 28.832 128.438 28.9492 128.461 29.0508C128.445 29.168 128.41 29.293 128.355 29.4258C128.301 29.5508 128.238 29.6797 128.168 29.8125C128.105 29.9375 128.039 30.0547 127.969 30.1641C127.906 30.2656 127.859 30.3516 127.828 30.4219C127.766 30.5625 127.711 30.7109 127.664 30.8672C127.617 31.0234 127.574 31.1836 127.535 31.3477C127.504 31.5117 127.477 31.6797 127.453 31.8516C127.438 32.0156 127.43 32.168 127.43 32.3086V32.4844C127.828 32.25 128.258 32.0664 128.719 31.9336C129.18 31.8008 129.637 31.7344 130.09 31.7344C130.145 31.7344 130.215 31.7344 130.301 31.7344C130.395 31.7344 130.48 31.7461 130.559 31.7695C130.645 31.7852 130.719 31.8203 130.781 31.875C130.844 31.9219 130.875 31.9922 130.875 32.0859C130.875 32.2344 130.793 32.3086 130.629 32.3086C130.605 32.3086 130.551 32.3047 130.465 32.2969C130.379 32.2812 130.32 32.2656 130.289 32.25C130.234 32.2578 130.141 32.2734 130.008 32.2969C129.875 32.3203 129.73 32.3477 129.574 32.3789C129.418 32.4102 129.273 32.4414 129.141 32.4727C129.008 32.5039 128.914 32.5234 128.859 32.5312C128.836 32.5391 128.789 32.5586 128.719 32.5898C128.656 32.6133 128.586 32.6406 128.508 32.6719C128.43 32.7031 128.352 32.7344 128.273 32.7656C128.203 32.7891 128.156 32.8125 128.133 32.8359C128.07 32.8516 127.996 32.8828 127.91 32.9297C127.832 32.9688 127.754 33.0078 127.676 33.0469C127.598 33.0938 127.527 33.1328 127.465 33.1641C127.41 33.2031 127.383 33.2266 127.383 33.2344L127.266 33.3984L126.984 36.3633C126.961 36.5664 126.902 36.8125 126.809 37.1016C126.723 37.3906 126.605 37.668 126.457 37.9336C126.309 38.1992 126.125 38.4219 125.906 38.6016C125.695 38.7891 125.453 38.8828 125.18 38.8828C125.102 38.8828 125.031 38.8711 124.969 38.8477C124.914 38.832 124.859 38.7891 124.805 38.7188ZM125.203 37.5703C125.211 37.6406 125.219 37.7422 125.227 37.875C125.242 38.0078 125.27 38.1172 125.309 38.2031C125.457 38.1641 125.594 38.0547 125.719 37.875C125.844 37.7031 125.949 37.5078 126.035 37.2891C126.121 37.0703 126.191 36.8516 126.246 36.6328C126.301 36.4219 126.336 36.2578 126.352 36.1406C126.383 35.9609 126.406 35.7891 126.422 35.625C126.445 35.4688 126.465 35.3164 126.48 35.168C126.496 35.0273 126.508 34.8867 126.516 34.7461C126.523 34.6055 126.527 34.4531 126.527 34.2891C126.527 34.2656 126.523 34.2109 126.516 34.125C126.516 34.0469 126.516 33.9961 126.516 33.9727C126.305 34.2461 126.129 34.5234 125.988 34.8047C125.848 35.0859 125.727 35.3711 125.625 35.6602C125.531 35.957 125.449 36.2617 125.379 36.5742C125.316 36.8945 125.258 37.2266 125.203 37.5703ZM124.922 31.2773C124.945 31.3398 124.977 31.3945 125.016 31.4414C125.062 31.4883 125.125 31.5117 125.203 31.5117C125.523 31.5117 125.809 31.4453 126.059 31.3125C126.316 31.1719 126.543 30.9922 126.738 30.7734C126.934 30.5547 127.102 30.3164 127.242 30.0586C127.391 29.8008 127.516 29.543 127.617 29.2852V29.2383C127.492 28.9805 127.348 28.8164 127.184 28.7461C127.027 28.668 126.859 28.6562 126.68 28.7109C126.508 28.7578 126.332 28.8594 126.152 29.0156C125.973 29.1641 125.801 29.3359 125.637 29.5312C125.48 29.7188 125.34 29.918 125.215 30.1289C125.09 30.3398 124.992 30.5352 124.922 30.7148C124.852 30.8867 124.812 31.0273 124.805 31.1367C124.797 31.2461 124.836 31.293 124.922 31.2773Z" fill="black"/>
<defs>
<filter id="filter0_i" x="3.896" y="23.1561" width="241.12" height="89.5639" filterUnits="userSpaceOnUse" color-interpolation-filters="sRGB">
<feFlood flood-opacity="0" result="BackgroundImageFix"/>
<feBlend mode="normal" in="SourceGraphic" in2="BackgroundImageFix" result="shape"/>
<feColorMatrix in="SourceAlpha" type="matrix" values="0 0 0 0 0 0 0 0 0 0 0 0 0 0 0 0 0 0 127 0" result="hardAlpha"/>
<feOffset dy="4"/>
<feGaussianBlur stdDeviation="2"/>
<feComposite in2="hardAlpha" operator="arithmetic" k2="-1" k3="1"/>
<feColorMatrix type="matrix" values="0 0 0 0 0 0 0 0 0 0 0 0 0 0 0 0 0 0 0.25 0"/>
<feBlend mode="normal" in2="shape" result="effect1_innerShadow"/>
</filter>
</defs>
</svg>
